<mxfile host="app.diagrams.net" agent="Mozilla/5.0 (Windows NT 10.0; Win64; x64) AppleWebKit/537.36 (KHTML, like Gecko) Chrome/135.0.0.0 Safari/537.36" version="26.0.16">
  <diagram name="Trang-1" id="g1JHGm7F3xTqKIjxZCLi">
    <mxGraphModel grid="1" page="1" gridSize="10" guides="1" tooltips="1" connect="1" arrows="1" fold="1" pageScale="1" pageWidth="827" pageHeight="1169" math="0" shadow="0">
      <root>
        <mxCell id="0" />
        <mxCell id="1" parent="0" />
        <mxCell id="WdcBxDvD3YkukcvI_A6Z-1" value="" style="rounded=0;whiteSpace=wrap;html=1;strokeWidth=2;strokeColor=#3333FF;" vertex="1" parent="1">
          <mxGeometry x="150" y="130" width="610" height="390" as="geometry" />
        </mxCell>
        <mxCell id="WdcBxDvD3YkukcvI_A6Z-2" value="" style="shape=image;verticalLabelPosition=bottom;labelBackgroundColor=default;verticalAlign=top;aspect=fixed;imageAspect=0;image=https://pbs.twimg.com/profile_images/1816856437567406080/ByISu1ft_400x400.jpg;" vertex="1" parent="1">
          <mxGeometry x="150" y="130" width="40" height="40" as="geometry" />
        </mxCell>
        <mxCell id="WdcBxDvD3YkukcvI_A6Z-3" value="&lt;font style=&quot;color: rgb(51, 51, 255); font-size: 14px;&quot;&gt;Docker Network&lt;/font&gt;" style="text;html=1;align=center;verticalAlign=middle;whiteSpace=wrap;rounded=0;fontStyle=1;fontColor=#0000FF;" vertex="1" parent="1">
          <mxGeometry x="190" y="135" width="120" height="30" as="geometry" />
        </mxCell>
        <mxCell id="PyuIM4OST405FSh96Bw6-4" style="edgeStyle=orthogonalEdgeStyle;rounded=0;orthogonalLoop=1;jettySize=auto;html=1;entryX=0;entryY=0.5;entryDx=0;entryDy=0;" edge="1" parent="1" source="WdcBxDvD3YkukcvI_A6Z-4" target="PyuIM4OST405FSh96Bw6-1">
          <mxGeometry relative="1" as="geometry" />
        </mxCell>
        <mxCell id="WdcBxDvD3YkukcvI_A6Z-4" value="" style="rounded=0;whiteSpace=wrap;html=1;strokeColor=#006633;" vertex="1" parent="1">
          <mxGeometry x="210" y="360" width="190" height="100" as="geometry" />
        </mxCell>
        <mxCell id="WdcBxDvD3YkukcvI_A6Z-6" value="" style="shape=image;verticalLabelPosition=bottom;labelBackgroundColor=default;verticalAlign=top;aspect=fixed;imageAspect=0;image=data:image/png,iVBORw0KGgoAAAANSUhEUgAAAOEAAADhCAYAAAA+s9J6AAAAAXNSR0IArs4c6QAAIABJREFUeF7svQeUHdd5JvhVrnqpEwIBMIsUKVLBPpJsybZ05iiYOx7P2GuJXntmZSuNIhNAAkQi2USOBAmQCrSyZ+WdIeVde0a2LFs747HHki3JChRFBWYidn6xctX6/2/d9143GkAnsMPrOgfs5uuqelX33u/++fsVLB/zPwL9/WqphG7XV69K1agXpvk6wzBWhWl0jabqb0kUrJAPqaatx00UgP43VQCl7XM6Q5GnRckQVOWJJIx/lKZ4QYmjn8VxOow4eA6heQb9/cn8D0BnP0Fzrjp7GF6et/+1zeuvHvDqr3Xyxev9JH59TdVeEfX2/mI1TqAaOhqBD9O2ECcJUlVBlMTQLZOB1j5REohTAaGSpEjTlEHKP7P/p9/NKMQKQ4fh+wNR3X3aUbT/oTQaP9Gr4befePTRn7w8o7L8LcsgvEhr4HX9G17Z0NTLa8BVqmO93U/S/yMgsGkaVGhIkgR2Lo96EMHKFzBSHkNXTzegKKh6DSi6Bk3XEUXRWZKufdIuJAkJdO2HlJgEQi1NYKQpkjCCYRgIowBJEgFpDDVOYQJ/ZafpN3oU86dKw3/yR7sOPnORhqujb7sMwjmc/jdv3fr2MQO/59nqB0fTCFHeRj1NkOvuQn1sDKqTRxKEsAwbSpQgjWI4tg3P81jamY6NankMej7HYCRJqGnapCBq//B86mi7+tp+jZrJ1jRVYNs2Ko06EqRQTBVpGgOBD922ENUbsFPAakRYly/BO37mk6vM4p9+a9+uv5nDoevoWy2DcIbTf0P/xwpeaN8UaeYvu7HyC6pjvjM1NAQaoBcclH0fqWEgQgJECaxiEX7Dg6HpUFIVURAiZ5twG3WYpg7DMuEGPpI0Ra6QR71eZ2lIEnMceNoE20Q7cLJXOdcEMzhTFbpqolFtoFQqwQ1cBmQch4CqwPNcaKYBy9AQuT7SwEfBNOGWqzBTFXndfNwOvUEzCP7qx7sP/dkMh7LjL1sG4TSXwLX3bnpnVcWdnq7clDo2YFoIkhRRnMKwLQRpjMj3UVqxEpWxMcA0hEUXhICuQ01VmLqBOI6RxCEsy0SchPBdF9A02DmHJSOSGIppnvV0EyXbhYA4cYJJDW3amKkKJVFZModhCLp3FAX8bIZtAIYGPwxYPbXzeXheA4gTmKYJXVGhRhEU14XieliZL0ApV/db9fhLTx4+/ONpDmtHn74MwilM/9X33PnGwLF/t64kdzWQIjVN2E4OcQp4QYB8sYBapQqLQAmw9CI1jySZruuoV+pwigW271RVhd9oAJoOx7HhNmqwHQeKorD0cQmMqgLLtuH7vvgcYIBMZttN4fHPOoXUV2S2omFY8Op1mI4DUlHp2UkNps2gUR2D5jisEgeeR4+FnGUjbHiwDIPfmSR7qavAG4cSx2iMjWFdTzfScnl/IYj/+Mc7jzw5k2fspGuWQXiO2X7dtvXrxhTlvUnR3jWcxEDOQWKSegmoGkkygQpVSRlcpMYFngANSQn6jJ0dYQzLEj8VnRa58FI6joNqrcYgpYOBASCm6xwboetCNU0+dzYAlCCWr0l2X/sRpxE7iwh8hqohCkPo/NwhSzz6CU3l92Ib1rTgN1wGcaFQgBtF7M0V901gGhpi14OjpNDrHvo0A0alvsmsu1/+wZFPnegkcE31XZdBOGGk1m69/Z1+l32npyk3hZoG3bSQQGWVMoWKRKF/tNxUpEoC0D+y++iMbH3z2dnvZP+pKf2d5QzbYeNAoKpNWEggTpy8c8YACbwXmOlz3ZMltkKhkMzmTAEtBeT/ToxHJuMfW0h8HgOxiWg0FGnC96CfNC5qmsLQVbjlMlY5eTROnvmLbl898uyRY8tOnbZ5WwZhNhjrNm64Wb+k+7+MaAmqUQAU89kS13iBkS1HC1MsPCCmQHkThK0RlYChxSiBeS4PJYGZwNkOpImgORcA+Vmy2TsfEKcKQnoVAaAMjNlmQRCle/DGM2G10IaUKiqfoJHE5nGiHSjJzhc/Uwp7uAG6TRtOPYAdRDBr4c0/PXDg8alKi6V8XkeD8Ib+fnNI9+8IDGt/qquAacKPIxjkhCCHhEKySyxxkmjjjyQDoyoi6dkCllKQYnDtR3tgnQAsD7nwz7XIJk7QRAlF111IGvI555hpkoYsyeTzN3+K9+Xnzq6VIJSeVfn3yZ5dXsMJAkhgqeQVjpH6IQqWhUa1hpKiwhwduvm5vcc6GoydCkLlqp2b3j+mK59xCXCKAk3RYWo6fC+EoeswMnuofRG2x+MkPGNFawbTaXHSgJI0IVVMHnLxkkonJQursZnUOZ+H83whBgnsqUiJ80lEKbHpu/gd+NGFhG5K2+xBmip3dkNS0uVGIMZKfiKeSlUUdt6EnidsZ0fYmeS0IkXfaFSR9wN0+/jgj3Yc+uxU3mWpndNxIHxF/8Y/CEv5Lw76PtRiHi4BQadQgIo0TmAbYpH4ng/TstghIRZXttgyydECzvhg+rkXyNmZK2IdC4kqjwuFHJrnTVECnm/Biu8VEo++d/x3K/xcEoiTqckkPfWEHEcJYtpgWGVVs41Gis8U8ANOyyNHVRoG7Gwip0/kubDUBJamolqtwkkAvdH4wODOY59bakA73/t0DAhv3L7p3ZW88dhQGkPv6oJq26g26tANixeF+KcgDiPkOSbms8cz8oNMLUszsIwHjdrmsWiqYJOMKjsrshxQKW1atuX0QDhZhsxMF6185qYjicWasHvZFpSqrHyndlsXBMKW2i0ks7hWXqdpOhKKeZJ2gITH07ZNTpXTVbGBRUmIQElgWTp0L0DBC1AcqN789IHOUFOXPAiv3XzrO8K+0pcHomil0duLehQjorCBU0BCwWayU9SUXfQkEcM44l07DmJWo8gV326HxaoAoVTTyGkjDynZ5P/TOfJaOdAtda5NcrTNwrmcOO0gG3ffCxiE55tgvjST7OMlsVBF29+TZWab44YTwhUgUoXzhRxXLE3bHpTuEWWOGrKvNUNFHIQcxgj9ALpqII4U6JzQkHDSQhKFKFDebL2OUpSiUGv89o93H13S2ThLFoRv3LDhsjNW8EduV/6mqm0gyecRxBEUxWInS0KJ04aJNA6gqrRYssVkmJzxopsOYoqZQXhFm8DKFl3LSZFIv0ybOMtCEWz3keMmyRw7rZ9SDZQhj6mAbzJwy8/aKyukeiklb3OTaAOImHgp1UUIRV7XlOgTxCtdI0IR4mxyMFGaHp2vJQKE0ivMdyfJqAp1PpHxyJDikgoU8qZCQ5yo0CnuGgQQgjGBolBWTwKTNsRKFSUv+lb3qPeBJ499eklm4ixJEF5x58fuDHpLh6q2hsh24Gtk34hFRouFFuzERStxNpl9NnF3Z41tgqNi3HptA58E4aQ/s4umq17K81mdVQnYgBmLmwWakGKalEyKwlk6shpD18XvSRQg5+QQRKG48Czv7wQEZv87ccHIzWicOivfq+39xt+ttXHRJkRzoWfglmMbsY2ZAEkEmyA/PIpuN9p9as+D2yd/ssX76ZIC4Ws3bbr0lO79adhVeGNULMDTgIjlFMWyWm546QWkXZdjXYt0/logTKBnm0ukimQCUg/pIBuX0s5UXWNnSH1sBPlSF8LIR+C6LPHn62hX341YgJG0FHLyhBptMDR1CeC7yBeKCM+M4DLVQfjSwFtePHr07+fruef6e5cECHvu/lBXLlfaX9Pw4TjvwDcMJLrGuZ1Qdd7lx8fjlk4xOScM8CHUQQIj22KacI5QBQTZX3EYQLMsUTtIep+ucY5qEmUidK5X1lTvx6p6S0ORICRVl6ShnjcRlkehFXLQg4hT4Uw/TC0/+tRp5G9ZCswAix6Eqzff+g53ZfGvKdDeIOdKPgff82DkCohCUmcUtl+a2VnS65ct3lZcbKqrZmGdx/FKWrCK2GjsUEhAzyCbLQHCiHNXeXFTLaOqs51W9xrQ8g5XRUw1LHJR3rwZ8mlJQhkWIcdzHHqcRB7HVM1B4QxSb0Kuyyx5IUonym997tgn/+6iPNvLdNNFDcKejXc87K0ufDwu2QgjypmiwDmpnqqoXg9CGJrR9OoJb18KntwMldLR8DKN95x+jXSUSPWNwFT0BQgbRsKShBLMqeTIjAVIyR4MocAo5eH6ATR2kszpY035ZmI+MudQpj5zrm1b7q2mqPD9BizHIf8pQr8OtZRHEkewohSlER/GcOUTJws9ty5WqbgoQXjNrbeujC+95AfDlrImtBT4iKHqJtfBpVTXZzpcbkOOh8QPM7+fACCpOYkqgst0LHYQGrGwnXzKo06BfCBq5j2d3pGkXAwzTNCXGKiNVb+ldhffpBULGG7UoVJoIKEwzZRxM6cnjgNh5jiTDiKZy6qnCkzDYI9pxa0jpffkLAGF81G7jCLcwWGsLOagnBq59vi+I0/P6UO+DDdbdCBc3X/H2xrF0jeqfox8oZvd2sSLEoQxl9xYdo4dExRs58JTGbnKVppMvBYgpEx/YUstxoMmj0DI70u5rwpgRLRGE0QcwCT1TUEyXMWaseSKZ/fvf1HfftfbsKLnG3HmrJFJBPP1/mTTirnIcnAzJ5p0pMELkTdtNOp15HI2iL0gUmK4tSpyfb3wvAA6UkTkZHLrcZcffnCw/8EvzNf7zOR7FxUIL71n/d4TRWtzWipAhw2dcEcBdwoE6yb8JBJOiZSKalNoBgXbaViygHuW3S+dGRxHnqJrfiaDe7GvmQyEJEEoM0VBJFLKAg/mcPWzY7se+iA9T9eubW8o29q3DacIhVPMWqVYF/t5J7u/tGlj6aVuSkQh8IhGQ40SzkEl0ioCIM2b7lioea6I/Fgm24k6JV406shV6l+u3H/0P8zH+8zkOxcFCK+8447uco/21bCr61diTQdPmKYz0GTaVHsKWHuVAoOMa9tIUEgnRMujSCHjxXqwTRgmTBBVIeoJ2wJnHpCKGfkoIoU+WkFpxHvV84cfZgrDUv+mN1W78t+0zDwSoj/kSqT58RbzJpKIOeE5zUrEeNtUsgycLKbbCiu1spU4e4nPFfOrIQVBlLyoVq3+Uk/Df+Nzex46s9Dnd8GD8Jo7b72hvLL0ZNDThbLnw1JFUnWqqQgiv8lGJlOsRCpW27DLXEdWPduBKM5JIYpSF+NBr2lDYw0gMg0OwMO2AbcGg1TzahXdY7X/dnz3w/9Wvl9p24Y3BetWfFNJTUQxFRFSIsP8gdDMvLMEuvZkcVm3OXFexpkO7NQhD3jKtr2mKAzmGDEQxig2AvScbrzl2aOHF3RMcUGD8JVbbvnt44bx/xhr1qJcbcAsFKAxD0rMtmBAbmtNBHdlLuO57LtmWlgWl2pOLlv6i/OQ6mgj8GD09SD0XB4IU9eR1MfQ3fCx+sTQjU8e+3wz3av3njvePNJd+AdNzcHJ5eFHwbyBkEb9XMXPZOeKygxZlSHmqDm/MrShxFCTFEakgJLpVQrBkEmSeYWNSgNdQ+X3vnj06BcX6iwvWBBeveHDG6p9pcNYvQbDXog0UgQVYK3MJERKHGQg1JvJ1LKeb7LBPpfvZbHbhHqUIqRYYSHHAXmwA8OBHbpQnj/1X4cPP/rv2sdj3Z673jxYLP2DApsloWpQWGd+JKFQO8XTyVTC9k10HAil1dCm2ZDBT/4oTrKPFZGSCEpAVRAyQRZx3qhQBoax5kx1908fProgU94WJAiv3Hb73nLe2hzni+QcQ6IZ0PM2QqpbS0KomoqEDPB8jgmU5CSO2ymzlUdqTntVO33cXiG+WD2j/K6kjmoavCBEyOkyOnK6AdNtwB4dxUrXe9UTe4UtKI91Oza87oStf9/OrQRYdctUunkQEyLtLnuRNnqN9kXZTqvBjrTsOQVoE/aMkm8g5HQ9gqAGNRFOHPo8SH105fOIh4awohJ86vndBz86D6963q9ccCC8un/Ln4zk9N8L83lExMOpWVx6VPfrgKHDytvwyQkREYuZxWlXzXKhLLtfvrGoaWsH4XgnjADg/EmB2S4GnrwwZC9wQmzZxB3qByg0AuROnfnqyYc+/ZsTv2PVjltfN5B3vp/Lr0ISK/MPQnoJ+peVQU2WwTRZUr3chFSKDStAqMtEDaGyUkI4D48aQ1FimJTEfvIMXhWZf/GjXQf+zWzHfi6vX1AgvGTb7V8r5/I3obsbLqkTxI1JTVEoqBxH7P2ijA9ihaZ/br0BzTDHxfkm+mQYhLJQh7hAm/QTYhgpgD+f6thsJpNtQlVBEASgxG0iFVaJB3Wshqvryau/vX//WZyfPbtvf+1oqfADXS2S4QRFz1jjZvMgs7i2aQ6Qk6WpvbQ2x4kLtF1zIc+2SNAXThl5Fc0necLJf0AZQ4HvwXEsGAkQDI0Spf9fln92/N/iscfmOXFWvPCCAeGK/vV/7xUKvxo7eXiUfqZRoacYViKV1dMIBuVI+hFnenhU65dzmAuz/ZCTJHdPQVcoDnUBgjATAuNKo87eSCYvIqZ30kHSLGX6fJt4Tat19JUb/+n4zkPvmQwbq/pvf+3Iqt4fJLEB3bDZyTVf2gCHHagOMQszjDcbWkwEvFAnGPUkMdkTmvXqIOcMbdoEQDY3VOpElUCLU07aSFLymabMqRrXXJQi9Tsj337yTQsBiAsChNbuu7+m5vM3wTARk9ogeTqz3Y2BmIUXZPGprPy+kE03XpVpAbIF1vlTR+UipEVDpTsMKrKN2D4Si6lZ0pPNlBa3L0iVY31EIJwkIbSgji4/QNfp8it+fuSTz04Gwqvuuft1J7oK348dqjTRoWbUE7MQZrO6dJJo0pTuN9nmJS9szbkI8jM4iXiLKMR5X0+hhjGcRvid8veemncgzjsI7V1bvublnZtUw+CYn+R74d2vCcIpzcuiO6kFQgWhLrZ6ygJiIFLWDwDXyOpts1VHICQpIM6m2AwBMIKmRMiHHpzBwT85tesT//5cg3HVPfe87nTR/n6Q15DoKrv3L7SRLbqBbXtgjilnHEL0u/x/ZhwPI9iN8Nvl7z/15vmUiPMKQnvLR76mrF57k69Tgq4YIDqYq3KJA5A3mUwdIw8hVTzQB3osWKxJGjYlYTZL9IMAKol/2SaKE+iaihxlvgwOYHXFu+bpg8fO2Udw3Y57XjeQs7+v2BonQ6fSVbyYkXaeZ58MhMygR2VvcQyTcpCD8Dun51EizhsIV2y95U/CtSt/zyeyH0WkoE0EXyeAkRwTgjBJrCSSgO1UD/R5eyxNEktJikFFM6D4PuzAR75c+eTpHQ987Hx4Wtff/wtnisb3NFODQtXrTO+/dI/JQCjflpw3ekyqaQCtUftmedvBX5mPkZgXEF69fcPDxx3141F3Cbpu8W4s+/C1S8BOACFL/oy9TXDDtALX9DeZByulo7SFiGCJgJjGIXKpgtxoHb1jQyt/dvjRofMtpLX9W64/XSo8ZemayDqaQNY7H4vwYn5nOwjPMnFk1g3VKXouuqrhX5bvPfAbF/N5Jrv3yw7CV26/886BLvMQMV/7xNIFqvqeXAXtFBAy2DJJKONkcmJkgJpKluRnBEzhsBHB6lzdR+9w49Hndx/88IUWEIFwoJh7imgHFcq/XeIgbB8Pds5kB2/25EmlIgCLOPUADJaxeiT4kxcOHDynTX2h8Z3J319WEF5++4f/z6FVhT9OV62E6wYwLKfJcdIJNuDku6CoLJfJy5KgqblYMoIqLj7OWLcJgMxiQYS5cQhjcBRXjiSX/OihC1cMEAgHi7mndJPCQJQxs7TV0ck28uZnWWwyjgLosYqSaSMq19FT8/e8sHvvtpkAaibXvGwgvHzjLb/aWJH/e6+7CzWinTBz7N0jsteJKqhUG6QqMZMXWyzXcLu0TCUVQByf1SPBJ21BWe5DtqKGCI7vo2u0uudE/5EpLZor+7dcf6KYe0qxNLoBknSqNP6LZUTHP+f5tClFFX4IilRaCTVCDbnbsjJaxtph7/0/PXLg8y/HW78sILxq28evGOrOP590lxBGKoIgYfp5SrfipOMOPURMWRTVijZjWV0dj0dGxhsnTFIcBp4YJTWFZpkIPBc5VUOuUkZpZLT72f2PlqcyjBKEiSMcM4iXNgjPOyZZRQ3XIibkHKRyTBV6lMCo15CvjP7qC/uP/sNUxnU251x0EL6+/0O5F53ueq23BJeJlxyoqcGBUz/w2b3eqUc7CAl0ZBeOqzBPAUvTuQMwqY9h6MGwbYTEEK5qsOsN9FSqe1/a8eDWqY4hgfB4MfcUgZAkoZJoSzpOeKFxESlugBYLFgZKAIcSI4o95Osu1pypXfHjo0dfvNB9ZvP3iw7C3JaPfM244tKbyq4PNZfnchPqIUJZHpQHSgQ+nXq0QChGgOOFpI6y8ZfxiFJZDvGnlHKIqH6SWo0RXUc9QI8fIjc6MGUpSN9xZX//9S+UjKcUm71iHQ1C9i4T615K3Dw6hysYkjQPGgXzA5Rq9RMDgX35xWRyu6ggXLPllr3BulWbR+m9FAuW5aA+NgqjUOC8PmJH61SHDNu9TXW01QmXJKEEIRMWxyIfMqZUWkq7qtdg6iazp8XPH7974PDDB6azia3t77/+ZJfxlGoRCFUoVPbTofugACHlzirQI1UQJ6dEiakg0kVzU8NtIH+m/Ccjex+6aB7TiwbCdfff9vZKsfA3HjnRVQum5cBPYiakNW0TQa0K0zCRtCd3Tmc1LYFzJQhlSzFeFM2eGYKw2NBEgrYfNgDTgGUY0GseemsRrFMj9tPHjvnTGQoC4amS+ZRqqcImXOIZM+cbGx5vosLg+KzCqijVIdJ4R0SpqKQoUGeuM8PoGfPe/9KBIxfFUXNRQHjj+vW9z/TGw0FfNwpmNxFhodHwoRg6zKLNZK5ERESlN0xVv4gZz6YDgMnOlWxj5KPjwHwGQplDGgc+TKL2Z0IxD/CJeTpG4VR548kHjh6a7veTOvpi0XxKtdm92tEgpLEjLUN6UFkrI0lI/1gjIS7JAHlNh+O6aX6ocuMLBx58arpjfqHzLwoIr7z3ln+sre77pTHVQBQoMKy8oBbk2rc6p4U4pgbfc6FqZkeDUCyE9t7wwlFlhSJPVNcU1EMfkUWJowp0on6vBnj7936mPzaDejgC4cm8+RQctSNyR88HAFL3jZQSvGN4WoqEcmkJEZS/Sy3bUg2GlePGOWngYpUCnPjmj/S5TvaecxC+cvvHt4wUcnvqponUzgNmDp4f8Q6j02exoF4P3CpTm8ckCjtYEkoQtktBdhRQln9MRbsaGkEDiW1A0xUoY3X01cMPnOzfN6OW0ssgbMGSe3dQtDUJ4TIIyQgXOyL19CD11IsiqJYOhWzHWhVdldoXBu9/8H0Xkm7T+fucgvDSe255Ta2764cxgStMoWoGE+5w8SWrWrTDCNrBpinY4QBsNXQh1jcxHaKBZsQxRIP4N6mZJsWwghilKMLp2r8E9/r7Z1QI2de/5fpKqcQ2oSyinc6CWUrnttvkXM/JfUxEBYsVCe80kWgFaQi9YEChJPmqj/xY9R0n9hz9xlyNxdyB8Oabtd5fe1VU1ikVSkURBMSIa9You0M2YJGlOJLstVM9c3ICWzahzu5x5stRRLU7Z/mnCqKAvMgGcmGE3FD5P57ad/AzM10Aq/s3Xz3UVXqGKsypJ0eHOkZbwydT14g0mdUS8pKKpqu8Ni0VoRIjSHz25Jt1HysTDThRzh0/csSd6Ty0XzdnIFzXv2HPcNHeEhXyUDQd0YiLni7qEe8yCLnrKlodZZdBmM15FixWyCAh6GU9MiRbuEqlNqouKP0HR1DbtmtWc7YMwvGwmUjDT74L7jeT6Rl+EogmNEkAzbZhBxFyXoT4xPAXRw4//N4FA8JXb9z4ihNdeLrRXYCvqtwXwo4pwyNmY7fVfEU0MKGDaCxIHepkSSgdMiT95LjI+sEmD6dCkjBkntX8WPUDYzsfmJEtKBfLMgjbhGAWpxW0iq0Ox0ylIlUEHUwq5pFn2mug4OShVOrIB4A5NPSWFw9/Ytbs3rPaVeXrXHb/ppNjXfaaumUwQVMaxLBg8p8p84DsQdpx2hcbgbDTVaF2EFpESc8957l9DWf18/gpKSiaoNdrKN+1gz6c1bAtg/BsELIGktHwyzitPCum9C4CoGVB11UoYYjE9bAiV4RZqeAl919aHs/QPm+ZJLOUp9dsX/+BoaLzGa+UR2hoiN2I2zIXjBzKY2NQHJ2dMMx8RWKeOFKYD3IZhAxCEGs0lSRFTRDSCFEuY0I0DGoKw3fRM1b+j6f6D8/YFlyWhGcv9PFpg9JRJRLpBWdti+eI6i9Dz0cSh8g7Nrx6A3kiixob23pm19G9s4HRrCTh6+++7fLjpdwL1a4CGnEAvVBk927khlBSBbqps1FLTr/JQNjp6ij7ATg4T5QWEetAwmNJ4jDzlqqAOTKKxtbds5qrZRBODhOpocmqlXHdoTjdUkXiUVKS4DAlwmlqRBTT74oKs1JG/qUzq04f+/zgTIE4q4ldu+3Wr431lm4KiwWR/Z8oSP0YtmkhCWMoFJBPCYREWdiShKxmkSTscJtQTBr5xqlFWcAMopzUQB5RxWSeVPge+srVPxzo3/+lmU5y+3XL6uiEUWyWMwn1nzQT0U49Oy8IkcsXoEUpNyo1LJ09/kEScvKJ1qije6jy5eFdD824H+KMQXj15o+98UxP7p+CUjdCIiuh0kjKMmDeTHHbWE3ZM9pkROYYTGbrkGNGlPV2tHOGZtywDLhBmSfVUnXEUYLEdqBFCXoaIQbWb53xPE0ErgShputItXR2BuZc7ArzfY/May/Xpex9QT4LOmTbbhmyoH2R7PaI44oJcsRO8PxJ3OAbb/zegQPfmcnrzHhy1+29+59O5LQ3grJiqMdf5trlFlUZpzODUBOxKKYlZ69TtuM06ek7G4Q0HjER/ZopDF2B5kfwGh7U7hKS4VGsHAl/d3DfwcdmMrmTXbMMwvGj0qwnJCZwSt7KGpWSpsZmFKVkCCi0AAAgAElEQVQOyrhh5hUjEIZsLRCvfogVmgH1+JnvDux+4A0zmacZgfBVm25/5zM95teD3lIbAIlIVkhBBiH1eMi8oxQjbDVtESBs9YjobBBqio6A2nxzYCqBFSbIWTZGvTr6YhwfvqP/splM7LmuWQbhRBCK/5c0kxKEosJCCI2JICTtzs8CiTYxBXoeHB3ID43+9skdR/5suvM1IxBetXvb4OCK4oqaqQF+S8LRTiL6PQgvOtfBnZWVQSBskWmKc2eUgTXdd12Q52uawbmLbIN4LhzDhBYGSGIf3ZXGb53sf+jP5/LBl0F4YRBKlZStqkzDa2bQsD9DhN7osKnEOo3RCCtYmSoYvGPHtDE17QuuWP/x/7126co/HbGoTlDnbjgisJnp0O1RLNa3Rf87zhVlVVT8I++pEP+dDcIoCqFaJic4cF8I10OBCIDHRo6fvu/InEpBmqVlEJ4NQtHnRPC90jEOhG0NTCeSbbGg8WNYBRueHsEoV3DVYP29P9l9ZFpdgacNwst2bz09UsytDoiuUKXgJXn1RIC5vREHYyvzigqpKM6hoCjR+lEjR0Hnvnhbk81WQtGYqIZgH6ewDpEMmUmEoutjxfDwrz914JG/nu13TLx+GYRTA6FsODSxoawEjOSD1TULbr0CkE2PFJd6EZ67a3qphdMC4fUbb/31kRVdf+UVS6hRr4QkgaXRLSgrRhAVSSAK1ZRswXZKvxYI9VhIQnLeLNb+gLMFCNsfMRU727BUC16tjpyuoTA8/K2B/gNvnu39J7t+GYQTRyXT4LKMLumcIT8GAbAZqsguE+s6q3chp5qiwbJMrnoJa2WYXgM9I9V3H9/3qa9Mdf6mBcIr92wZqBWKK8u0Deim6KJE5EOTglA4Y4SIJ3VUZsiQKqo2wxhLWRK2D277zipZtqUkDBs+dMq3JYqFRg1dQ8NveXH/0VnnJE62CPq2b3rVWF/3j5dDFHJ0xoNQfipByMkTbRM5GQjTIIDtWAjdGiw9xaogwfPrp24bThmEl23f+OvDJfuvklwOoEaLTF+oC/d6xiA9kS6mmQRLtuGEukEZqljsUvCshAPZ30DumJnbW5RztWrWKH2PbGOmE6IC3iRGLgphDg1/a2DPQxdFCtI3EgP3qVLhKdM0l0uZJuxSEzdNaUZN3MzkumYzjGLjpsEe7oQoKTUFhbqPvuHy7z6976EphZamDMKVu+/5p1p3/o1uGMLJ55GGAfNhUnnHrDKKpyqzF/h5wi4WHmGG1xRASBuRaljU1QWKW4dTq+LSWvSGJ/Yd/u7Fet01O7e/6lTB+TERClM9IS+0i/VlS/y+7MxJVATUS1JXYTs2okYDSrmCawqF00/dumXNVIZgSiB8xW0fefXwqr4nvO4CtycOfQ+GaTB3aBh1bniBBngylVMOvPS6yYXeXjVBk0dHSN5RQ4cVeMgPj351aOeR35zKxM30nNX9/Vef6TKeWQbhTEdw/HVciE0cur4gvSNmyqKmwh0exDov/u2nd184bjglEK7bfueX3K6u99QNHYptIyIbL435HzFxdOox0a19Lo/aRLCypEyEIyuhXMRGDatioHRm7Man9x7+8cUcz2UQzt3osmONwkrkHyGfRxhB8XzkLBOWCVjDYwPHt+xdfaFvvCAIL9/80Z5qV/dI7OSRmjbqfgDVMhApMUvCNKKk4wt9zdL8Ow2eRvVmWZFyOwjlkMhKbRojStuTh8wmihFCDyKUTg5/dWT/sYsqBem7l0E4d2uRfSA6le81AN1gH4mTUO5vgCBqIOcHWDPs3fSTg0e+fr5vvSAIV/bfvm/Itu/u7lkFP4j4yxJNgReHbMvQDrAMwhZTAA12O4ES231ZL3opOdn1Td15KfqrRijUXFx9Jnz1D/bvf3Lulsjkd1q2CeduhFkSgjChw9R1BOU6tFSHQ46aOECOErzHKt85ec/BN84YhP+qv1//YT4Io1UrUBuuQtMsqOQRVVNeRCJEQbWDc/dii+lOAlSZJMy6Ksnnp5IYebSDkD6j4aIkYCgR0qCGwsDYl2u7HplxKcx0xmxZEk5ntM5/LqdlyjSaIIWhGjBVk/0Evu/C1hUE1VGsKceven7v4Z+c627nlYTXbLnj3SdX5B9r5BzoiQ5btxEmCYIo5PKbwPOgUcfXDgWhsPVaKXntiQoyjU+GMGR8SaiuohRGTwJY1TGsqeCap3cdfGbulse577QMwrkbZQahEsGgcE81EIzy1M+CeoaQRpQGUNIIKyru+05v2/eFGYFw7c6N3xzrLrypoWvcv63dCcNpaFnF/Ny91uK7UyvOKXNnx6vn1PSGqrE93rCINU1FEEc8UZbrom9w+Msndx19WaQgje6qndtfMVBwnqYFwxVo6XJN4UxXHRcncFenFAVfY5vfJ6ZBbnGXBfkDF701/69Gtu7+36YNwldv3br6+XxwOi51wde0DICtBdaeJzrTl1js14mQg4wLirGRSQgyGdg0DERxLHoPqqITFSIfTq4A5dRpXF32rvnRwWMvixRcBuHcrjgJQloCxYCywAiEKgKNuHYz2ogoRE89xLoTI+dsZ35OdXTF1js+6K3u/qNQ05Go3BGP32BcFkyHB3rZMM8C3sSOxoOZZQbJ/ELKLGL1xNZEWVeaIm+Z8AbHsLrufv5k/6H3z+3SOP/dliXh3I223IRJAlqCIojTMwNVRZh1dTJUFerACF6Zmvc+se2+nZN9+zlBuOrAPd8ZUJLXW7mC6FCTtnHCZLt/B5uCPJYShDT41NuOq0KyzUqC0NYMeLEPT4uB0AUch5u6dNVi9A1UL/3ZkSMn5m5ZXPhOyyC88BhN9wxJFiXsfhH/JYkoK/PzYcQNXV/aeO+keJv0w2s23XrpQG/3S253nsmbRP1f9mjtAJwkJ3S6L7CYz2/PgJGV2e0EVhyBIPtPU+FTZ1yywTwfRS9G75naJ1/Ye+hjL/f7L4Nw7ka8PVmD7EA6pBkiS/uoPC31XZiej0sa/huf7T+bh2ZSEF61ZeNd1bV9B4fSCArlNmbl/0IfzYp0ycuHlNtHdeohQUhgo8prOnzqxZGZA9z1J0mZmStQfCBvw4gSFIbruPJkbdX3jh2bMU3eTMdcekeXHTMzHcHWdTJ3lD6hmG977WEzLTGOkOMKiyq6RyuPDN53+JaJ3zwpCC/dseXMWMFZFRbz8CkjJFVgUE+ErFCXbBtihqZDSzs7RMHlSClgRkJddwXnldyvYIcxdEuHawNRtcxMBL0DtaOD9z9w++yXwfTvsAzC6Y/Z+a8QWiKxBnICRsY9Y0TCUaMbFmr1MoycgUvCGC/des9ZmDvrg1/YfMeVwyv6nhvSFPiU16gJSUelNxyXVAiAwtu3DEJhFzIIYxGEd40MhFk/AyNKEaUR1JwBRBQXrKN7uLrixN5Hhud6OUzlflTUe6Y7z12ZWFXKQhSyCuTl/CmfV1o65yyFm+TF5MKdX78E16aJDZd73SeICYTkqKH+hlT4TqyCqoIIAUqui3XHh6998sgnnm5/pbNAeM3Wrb871Gv/59Ay0CD2bJ08o8L1TiROaipeO9IEbTsZop0crGd7megcWWFIsg5UWZ5oqiKiJHfqYRBHyPs+cqPVY6d3PHjbVABzMc5ZvXfz1Wdy2jOa4XC3J6lDCaoRsaG8XD/l+7VzurTXl7JNnaFM0KPwiuP1JugzReLD/AGRuHY13ogjcryxpzxhJkQnFDQuIX2iKQgjD6U4xmVj3nuf3LF3HAfNWSC8sv++z54pau9PLQOKqXNgWXpHBQhpIATq+Qs7vMlnk+CKGeNk81MxLiwlLRuB14CZpOiqeyiODHQ/u//R8sUA2FTuuXbXhstOFqwXTSNHBDdIJ4qfqdxkDs+RoKdlJehRWqVxk4GQ1iKredlp8wlCIZi0Vh4wATEh9sEEdqjzGgjSFJptIkwjaNUK1rjenz5/74F3nVcSXrp355mxkr2qEbpcLRHzoNCX0U0ls5rghWHi1GUQZuMpmnrKVELpJY19HybVtUQBnOGR3eX+B7fP4Rqe9q0IhIO286Jp5AFNh095wK0012nfbzYXcOFzVlfZZORru+Fk9ZhC9WtVpMxnt2GpHdIzhCSaOXuG+ookMCNiByYnnSI2F02B4daxKgjx4qad44TfuP+55n3vW1l/zbUDw46OJIk4zYo59ylfJhEgbGdIWwahUI9YN8gIjqnXPG1bEoRUZaJGEawkhDlyujjY/4nabBbubK9d17/p0tNF6yUCYUopVgqBMKMfkSGnl+knW1RNXVKItsk8hbJETL77RHDOdkxmer3kSiJlIqCWAmrUbAdPeKEjEDKMVWYLEexqBX2j1bc8u7/V13DcO19375YP/MxIPqNdshKR2+CK4ZT1T+qXp4sGJZJdmyaqw+OEAnxiCtu5K1uMXVlaW62B3EhlT3XvQ9tmOuFzdV3v/k2XjuTsl2AWAUWHFsWZnf9yumTYy8Ccs+PGL5Nw41VUqeK3xlluemLc50mMZ98t+66EOnXUijJblVo/iJaAmmoiSWPRdyX1Ycch7FPDfzy0+9gfNDeV9sldt2fLP432lN7o6waUOIFOHtI4YAOTQEiSUMTGMprCZRCexcQlA7hNIOqAXXPxyp+eNL/76KOkVszrccmeLStPF60BWKKHSAuEL/9jsUOj6WUX2pxBe3tGjkVqXkSpfm2iQkpO0jyEA2n+HIP0WEYs+hqK5yRVVDi2uJcFkwNHcAoFwU2qKnAsFX0NH8dvv7/5Vs1fLv/oR3uG1hVGsOYSNDwPtuXAa9SgmRQHlJ1jBTuY4AoV3tH53Ile/mUzyTeSbcwfyx1Zeu+Eo8aPPHRXvTvHtu9/YCE8L4HwjGUNaARCTUeKgOsa5+OgFD/Rn1Hoa7SARVevtsYsmmiSILt3yQUrKQnnG4StLmNCM6RQHm0aMm3N1iyEfgBNIy4aBV6jjIIf4oqTft+TR46MMIbk4F+9/bZrT3QXfxbmisysrcUJKP2NlhgbwmxAC0OTuseS6OVMSXbYzMcULozvlPWE3J+RkxdETyrhPIigBT5+qawa/6O/f35W+oRhuqa/v/RCISmrZpEZwhJQWVUkgpsvky0ov0dwesrWCOLrKd4qaUAE+4AoC5JOL/k3kjwLQRKyYynruUJDPRGEakjkTyrihNodaAjSAGbVxfWjeM0P9+z50TgQrr33zncO9hS+nuQLoPbp5GAwVAVhIvKxlkF4NuhpB1MSWaZEk6HwJERhCKPbRjxSQe9o9a6hHUcOL4wtA3j9pz9kfHekNyisugQ1Ih3WSNMRNlrWh+hl+8l9SKh9HjG1mwaSMIRG1ShRAoPoIpKYG3LKwmhut55x+oRZmth8SsJ2AJFkphGcCELOnKGYJhFCmSoaSogc5Q6/WH7X8cOH/3QcCNfsuGvDmVLhsEJqiqpBCSOm9lYUmRFAOz1liCvcKlioMJ0tCWlkLF2DGwXcBsCybfjlKrq6SyjXRmC7AbyNe2mrXzC6wus/9CHjp69aHdQoFdEpQKVFfxGfjtYPZeVMeiikZYWc4O6lIbR8AWkQcUUK/TRsC24cTgrCZt/LeXTMtL+T7HM4DoQESj9Fwbbgex78NIRSsGHUPKwY8vYf37Vn8zgQrt656b8MlfI3Q3cAbtqSwtBSUYTKHlEBQjpEDZ341+nqaBJTGjtgWCYC14VNRbyhjyh0sTZRP3By057PLRQpSM9xQ3+/OdIb+9UE8Cj+mxBT5sw9jHKTPtc7nhOAXBSQoEApXSpQNhIkusbaBEIqDKAwWYLUEBkpMjYoJeFCAuHEahoaC+YQonURpdx9mdYJxdx9yi0eq+F6q+fUT9bftXYcCHvu35h6q1bAi4BcPg/fc5EELvNmcN0cExnJbqakjy+DkDcnpMg7Od7pkjCCbRrQkghOHOD0rfdNmiA/36C8fOOH/tjX9V7YuZe0VPVpc6UsUrIMdZG2xpYapwqnCjnFmx5L6bls/jyn8qooZ6W/ZdWWMdCjpTAVYK2tmlfXNGXtaEFF2lNA2KiDnEZWrCLyIsQ6WYPiaFdHFwoIpedWvmt7ezW2EclfE0ecp0vqteZYyEFDfHwYl4+ll/zooT1neJG8/rYPXf7C2pUvjOQd6Gae6e1VQ4Vlqkg9oQ6Qy5W8WazfIgMh6cFZUHK+F9Z8fD+npekmwkoVlmnDMXTU62Vo9QbWRcp7n9lxYFp96ubjHRbKdxYP3ftS1UwvhW2JXcBN4Fg2CUWQ74OAOA6EWQewi6lKT2VsmiDkjSxLH83ix4QTnSrtA495hkhwBXECxY9QCDVq/POOFw888A0G4WvuuvUdL/QW/zro60VECalk95H+Gkcwsych3gzaMQ3KU6WyDamSpiIzoBMP1hCiBPlCAcFoFcRo4Bgq+qIEP79j64KUggt1nrp2bNxf7c1tSvMO0jDmKgRToUYrIq2OPKRMHSnJlptEY/P7Rq0YZov+pb0APgxDFAo5RIjgVSpQrRwD0wiA/Ikzdw0cOHKYF8o1d9+24Ux34XDQ0wOf/cEU6gd0NYUWiPgyxz2y4CQlqDJfCru0OxuEpB1QJpGRCo+yTv3pxurvfnb3wSn3p5vfZbQwvn3tjk3/cLKgvlnp6mL2AQc2Yj+CalpN9rJ2SSOb2cy3JOTOWuxYbu259JuWsEuUnU5hHCBNKVahw7Hy8OsNtnvX1v3Hj2/beTNfufa+jX9UyTsfjItFuGEMxSJjndIW4pZLOMsAoAwBkoQkWsWXz9yoXwjT396irZlCRcpP23udr85NUQ3QbkcbVjFJ0d3w8dzd/ctScBqTe+Ott94wtDL/pLeqhHISwrAdoBrANmwEKTk0BFuBtLHo50ICIT1Pc41QkQNSUUtI2qKiIIx9cHMKOlyPq1dI1c4NV54Y3tz/Wn61fP/mb6GY/2VYFmJdhxd40M1MwhGiszIT+tnet5v+f/53omnM9oRTZRY8fRxplICQOZvaSrQSLtakM0QcMAttZczb9AeTdzrLSqEPDeHKqn/zk3uPPT7zp+q8K3vu3fq3QV5/q5LPIVRE3FDTDA6PxeQhnSRtbeGOUpas0RaX4lrILExD70QVqPT/hh/DXfc9smKAwsFdaaG7CyPVMlTbhE+2oGky0zZ5dc53LCUQkguZmbOyjBfecVPKEKLdRvicJQhljmBMGUN0vl/FZWl68rk7d65buAtk4T1Z36bb3l5e0fc3xa4SGq7LbeJ40aoKgjCESmGLtkOuN4nLixjinPPBIuARCOkfhV9IJY3HfEfB+vVO15WXNLysTx4MDfQ7eXMIhK1gfeuZFtfOdL6xpJBLVhnCqXjtklAAjvMgFK1FZchAFNkRXIiqaOiyTCSnT2NVw/utp3c98OdzPntL+IZrdm0/Hq+9ZN3Y2BjTyVPUlbo/ayZRylNZ2HiYLWYQymmUIKRWakaQXqMUD/WvCBJ1kLITaBequHUYjs07UBAETUk4mcST8aPFu0ZaHCGUQnU2CFt5jZJ3tfWuQk3isE21hmuhnn5q031T6sy6eMdrbp/8Fzevf8eJ3u6/HqBCWF1HoauEar0GK+cgjCK2tammdbFLQinIpCSk9xFM7DHsVHm9gns2/6JWsP+5u7cHNc/lIk+VuvFS0xfH5gC0VMMWowpw/mUjQJhVt2XUCi16BeHlImmZBaXYNhY1cJKGgVTRfKWOy4bdX//RgcN/PbfLdGnf7codG4+7fSvW1TWdO3x5gQ8/CkEkVNT5Nt/dxT08ljIInVh5h1I4svdtiYJvkDFM8ZhcsYBqo861TzQYsgnoRHffYtLFz7eURRa/UDHFLy0FSFROZwkKWS1lSGorx60SqJTcXq/jOjP3T0/dvu2XlzZk5vbtrtu+4d+Nduf+rKqbCBQNcRBAc2zO1nJdF1EcifU3Ie90qamjTqz8oYI9/b9jOcZXFENQHZAHkHZ6Uk+9ahWaYTarxiebhsUORglC6jNIKUcc/8xyZen/qceElnHriNIa0ZsxpU7FcQSnUsOq4drbnzn08P83t8t0ad/tqgPb0wFTQ2I4UEwTURSBPNH0UzcNdgw2ajVoBoXLWsdiBuFZjhlWR7FJcR7ac1cYxQeJ1IkKCCWfRxQG0G0bCEUC97kCX0sBhCQFWxR6ok6NGeYoABGJllesx5P7nOrbELPEzIUxekcq3zl+3/k7sS5tOE3/7a7fePu7TvbkH496S5zGRR5ospvILuTel4bByfCm4zQLCOS3LFYQtocompUlUQgnUg4q1oN7DyRKupHUT4ru009ehMy8TUwZmbrWxrNPAyIpvxc/CIUXlGnslQQhNfDkQm/RZclODKS0UDhVD0gNci+HXMKkDgzjqmr41h/vPfJ301+KnXvFKw/dn57WNTQsrdlo6EKjMdExuJj8ExMByPghfFEUIlQ+oVhH93wiUZSPcvsuSlfLQMjMzATCzIUvpUE7AOn3pQBCUjsp5YyOiSDUIgVKkgWQLU1UR1crDNq+mvu/Tt1z4NcutICW/94agSs23fo7Iz3Fr6C7G41prJ6lCELKzbZifEGxHjnw/wLpb3FVXGYPNqXcJCCUf1sKAGyqOJQTm4GQ6sDY5sskoRKksKirLfWT8OpUl4K8qkMfq2BlxX3903se/OdlkE19BK57aHf6XBJAy5fgB1TiI66dmBo4Uf2c+jcszDPb7UEpCQmERoz/qeQ+efDJCOkNdBIBkQOJmaznHnuZqKOPJBXdUgIgvQu9W5MvNAOhIDwGiCOEbBWXCJEQw9RU5P0A5snh/3Vm37FlKTiNNX/jhlve9eLKwuNudxFJrMMwTMSxYGjoFBDK4WIVNU0pTvh9xf7kwbEEaddEEMrixImGcPMmsmZqkeujMuGASmRE3aS0dwXduhEpzL0aGCkzZiW1GnJjNVwH5zXf6RdEPcvH1EbgFTs3pgM9Jfj5HIKqD12npGb2RU/tBkvtLAKhppUV55MHU5KABEJyEUub8HwgbGdEXsy5o1INEtQJwivKThmq5Mo679qJjigJ4VukFUSwggDFwfJXz+x86DeX2pq4mO9zzbaPv6fcU/xSJZeDH8Zw8n0IfJ/dEB0LQvK+q8qQYn/iQBOELNTIQdN2nMsl3Cz7WQKSkF87bUlC+n8CIfNgRinnbtfVEJRL7DQ8dA9Ubnxx77EfX8xFu9TufdWhzelQ3kQjNQDdhg4LfsOFboquVhc6Ji6zpbD+ZKhCsR7Zn7IUlK2n2kBInwtHfStOKAdjKQxCux1CIKQj5KR9IjvOyGihIIh86EULUa2Cwkjl/x65/+jvX2jRLP+9NQKv277+fS90mZ8rFyxQDwzfj6GkZBMaSOKoo0HIvL7OIwdSylqXIYooiTlpm2u54hjU0GQpgzBNY95muNOuqsCjfGFFgJBrJ6mwWVfRiBroCkL0HR+99pkJTR6XAXf+Ebhy3z3p6ZwBz7GAgNqHKbCJTMx1oXV4+TOTp0kQsleUuGXiGIqmMhDp96UsCYU1IkBoJKJuLdREFTc1+iDaR6otDIMGilQZffLMl8u7jv6HZdBNfQSu3brhvccd/fPqmtWoB+SMsaGrKjyvwTfR1fH1glO/89I4k0GY/+ShlKQfHbT4KJIvQci/t4Uo6JylpI7y+8hCSzmnWXNPctDQuzuKAjMKkYyNYnUtfMXP9x15dmlM/8vzFlft3Z5WugoYJVLfXA4R1QhGETFkIZ93OFbYyQeDsPToES+IQovtQsqWyVz1VFrSCSCUxbkyVEEOGdH0UchJ+D5WQod5ZvDRE3uOfLiTF8x03/26TevfN9Blfa5mE1mTjmJPLyqVMrcPp7S/wPWgGuY08mam+wQL/3wqD1e6P/PQC34YXE6Aaweh9NwsdXVUtrWWThpmcmTOGVFlb9C/MyO4oZxe/u0HHnhp4U/rwnnCS/dsTf1iEXE+BzdM4IchkiSGRfxFHKSXzO4L55nn40mUns8e/aHre69hCaipTUnYKSBsddoVwy/Ub0nnGMOII3QP1z95uv/gx+Zjghbrd16x9fY7K6u6D4WaiXoQI6XGM5qOYj6PKA7QqJTh5GxEpP4v1pecg+dWiXOm6zMP/oXn+/+as7p1TQTts/S1pR6iEGOY8Ua2h4y5YDeESV2BRkZxmeusenrv3sE5GPOOucUl+7amw5YBy8oRDzVgGlwrSCVKhqVD4d2Oypg61zFDppASx6eUrj968HOu772P7T9iumoDYUsyLM04Ib2fLOqV4WLBpRpzb8F8GKJrrLr3pfse2Nox6JmDF71mw8c3DK7uOeyWCpRuC1UhGs0AtmODQ2BaIrzw3NCic8mjeakFwfeUvs89smu0MrqNkpRJEhK5DpE8dUKckNZbTBuySipRCoXio9xpKkESByg1XFz3Yq3rH48dq8zB2uyYW6ym5kIFsgXz8Lg6RfRtJF2fHF6xGokYbIf0MpGmXXslhSR6UuP4K0rP5x7aVq5Ud7WDUDJcLfVgPaGC6DsoaJzr7kJjdJTT9mxK1PZddJUrewb7H9rWMeiZgxftvfNDdypXrDsUw4IbpYhtQU9B9ZeJksLXRXogsRmIKp3FzeA+nSGbjN5CD8NjStejD76rUq8+TilE5JjhAH1GuEoq6lL3jjKNR85BVKnD6e6GRm4CIroaHcaqutH97P795ekMdKefu+bQtnTUcbj5qKqYCJkqhBLkiaUu4b59si9we6ncUh23dprDdhDy72EMzfe3KfbDh97qh+7fShDKYH2zJH+JB+uJVEhIfJ2be6ZUJRGnWFF3tz593769S3VxXIz3umHrnXc+V9AO+V1FaJEG07R5bNkFkxFoMVfrJPWqF+N5FsI9zwVCxhlVkwTxBxTz4X03hmH4I2K34opyStXSNSERqew560UxkdNjKSRwC+doisjzkMuXuG8cd1YaHsWQ4mjo779wev9CmOkF8gxX7d6WVrsKKPOyUaCqOrS4TQIqCVemtJrtyFakC+QFLtJjTGYTciZdRtUAACAASURBVDQiiJALk7cq2LevS7WjMZKEURaaoLQ1cidT1sxSB6FuCBU8dAMUiN6xXMNKN37/s7v2fv4izcmSvO1V9955ZyVvHwqdHALdQEwE0r4Pg8JeSsJ1mnRw51omUxYfSBLlJTko2UtNBCF9LCVhPo2uVfDp/pzmGXUCYUg9FjKyJ+Z/JI/pEpeEUeBx0JjShwwvxgo3wfN3b+vw3P5pQqK/X13r+PEIsdYVS/ATBaGiMIO7H3rsBeV/VDzNxdKCVJkOyfM6zW9clKdPdMyQOhqNhY5ojXb4/pTaFPtc0yu64oSRD03XuT+D9GLJPMtFOQLneGiFiXOE6h2fHsG1ifkHT+3Y/cdL6R0v9rus2nbHhrCvdDigltDU6lozmJEnosaY7OQTKYCio9XSBmG72SZbolE8VBAIkDtYhP9IElp+iMal14nWaGv3bv/mQJq8ScmXUMh3cVOOWE+gmHSdyPHTYtGTgVUJBqYwl4gkd7GmHbGrXFcQuQ3kUmBNgBef2dh/xcVetEvq/jffrOV++cYItoGQ4q1sC4o1QXWqshmKpLCQIYnFxBt6vvmSrACSLJoY26WEp191U0NYrcCyHID61esGPD+Epqq4DHr1+Vs2lngs1m27/RG3b+XH4lwBtbIH3bFgFHTUvDK4ETvHVaUKIQLaWlZtsdhBSCRODqlJIxX0jVbf+tzBY8tEvtPYJVbcv/nOoZ7iIfauZ1y1sqcl2z2CRGbJHhKEkSrY+dpByHZwHMDM2UDdR0wmnu0wnaYaKygODP73wfv3v41H6OqNd7y/csmKz1Y1HYZisws5NmL4qQdK+2uXhCLhWTTTpINuuFgPzt1LYhSiFLnROo7fv2dpr5iLMFG9e+5Jx0o5duJJEMpGmBObuVyEr5/3WxIOSKOilt6TgpDy9qhyRNVhqBpqvs8xGkuzsLJc3X98247NvOheedvHfq18+Zq/G9I0dNklBGEMV/GQqBGQ5ddqmUdL5Fpmxb5sbC9uEKZRiB7VQK+Xnv7pXZuX+wtOY1m/evMd7z/R1/3Zat5hibcMwvGSkNsmEEbCCAUnD6/eQKrp7PAMKy66zgy9Z/TQQ/+JQfjaj3xk1YuX9pyJV69CfaiOXC6HwEigWQrCQPSH47o7rjigolfhrBFgXLwg5B1MTWCRGjFahx0FNwz/8Lmf4bHHBNXA8nHeEbhy993pSL6Ihin6y08EIWtKE1qbLbkhzVrpkVnGkjCLLFPMnc1D6lFP5UpRgsh1UejrZTDCDbC2Eb7hxXt3frepfq194P70pKagyyghihKktopGfRQGcavwoWcdm4h1RSTfEgilq3kxDi4Pkq0hrdWR00ykDQ/kLbWiBEU/hu5GKORsTrVqGCLdyiblgJL/iX2Gx4CLoQRZKVcFTONnG72Gnt0rpkUb44waKSepEY1paWvTwcFDP3zw04cW0hi/6p4NfzDSnf9izbTha1SaJEDYccc5QChJpJs96n3RbYpyk4NqHd2GgxU/f8l++tgxvwnCFXu3fnqsu/ghzVf55JpbRWFFF/xGPZN6OreGTpgmn1ytix+EIoDsA/kCUG6wx1cxNBiajnikgpXFbg4405tS4jEdTiSw5utECEUjIjQCaStP5yePIKn3nElC1H/kjaaQiQI1JN7TGKahQDs58PDxQ5+6dSEt8Cv2bk8HbRWx6bA91KnHxDQ8KQnJUcPJQVEE07I4PEHMftQBu2haMMZcjNx9D+OvCcLue9e/b6y39Lm81YWAWmRbGsLYA+XAk7RjNXQCCHnRLmJ1lHV2UwGCAHqqsXPBj0NA1WErOkLXY4OaHVWqUMEtsrMBeIYgxsr0ghmtQZHBRSNMIxuLEioi/qH6am5OmiBw61gXxI+8sG3/LTP6kotw0Y2b1v/h8Z7cF8KeIsKEmNtFf8FOO2TqZnsuLIFQ9rek+dXkNk38qtSDkYRhw0N+zP/sUP/uD44D4ZodG99yqmD9T1XJwSrk4EZkCyYwKJc0iw+SChZx6zRBBcge0kUMQl40CqnUYqOhg7P8CQhZMxyiPhTn0TiIpjikdAW6oM3P/jSj9ce7KHu+UmjIGqPwpGUxWfK8xR56hiufGOw//PEZfclFuOjqvfelowUbZdqYlM4tyhUgbPlICA+CHoU+E9szb6hN0rQUmhLDqLsojfrvO7Fn3xfGgfCqXduuOJXXntfz3ag1GlBzFleYU192WqDSMUMgpG/iHu+L3DtKth01ghGmnOAbJTVCVNcrrCZIcDZ72meNcGLZrGNWi5wy5rNCYnJlEwsqJT/wJiDyk+LERffQ6KOj/QuD6e2Kjbe8q7Kq93HPthEarbTGWQ3DIr5YaIhCI5IglCELmltVpM2wiRc2XBT+pS4AQ6O4pB6+7qd7Dv1wHAgvXb/eqax0GlQRrRULcCujUCyDVSICIElDuqkEociYITaaxWsPEAitSKgPvi6awbQkO5H/jm8Tzlkg2euS9JytAsaNaCiXkndQUW3AWSe8z7WBcLjy6ZH+Qx9ZCGv1lQ/uSo9rKSLdYjW0k5u50HxIehQplOin2NBFNMGEhqDe4NbfGnV9cWu43Hbwur/9Z/2xzAs/bh2tvmfjV6sre36joabI5Ry4rgsiSCYQskTIQEjqqM6V0cKGWaw+MSEJxdIm+nuShO02rnR0ym2G9jqpfZMS0OpeLMtUp/dTgFDyvcUMcC4nYxp+AcIg8dAzUl4QIHztpjve/UJf7rFK3oah59mlQBSGnQxEMiSUrL2bSGAh6lARvCf+HC0GcrYDr16HQ9lnXp04bP9yaP8nfkNuquNAePkdH3v36KWrH2vkbcShz16dmHJHU/LUCccMScJUSbnubrGDsF0VkBsJAYvJf4VpJg7qU5jVwYkBbtmCdH7TNpbq+VR/tok2Sozgpjw8eSqMWNDwEwj7RsqfHloAkvDa3VvSgZ4CaqaBlDK0aQPhBkKdXHYpbHoJwHEghM6baeT6KFBPxloFfZaG3ODoe5/ZcfiLk4Lwuk2bii8VtEqyug+B24Bt23ARii5FmSQMuYPH0gFhu4onbECR5cAOGmICzkSfQaxhqbAbx9kBbcwD05ODrW+m6yKNYh+iGQ1tpVaoMSVEkDTQPVL51ND9hz86n+ooxQUHS+YXy46NkNQsg7rtkhTs4CafvEsrbEqQiEqUKEtho2UjNlPycpuKhsB3UdBVpOURdI1Ubnzx8KebrfXOMmtK9979j+lll/xS6vtwwwBwNJaAesztigQ9PEnCeGlIwnHijkCY2bpCKklYyeUvG6xL5h2xBAm0YmsSOJrqT7orgV40J6XOWBkIYxW5UGNJGMYNdI+OfvrMjgfn1Sa85sg96SkzRZ2ktF1EEojmQbrWGdXxk2+A0oFGqyg+G4Tk5fZTFCyHQWglIRy/gTOb9o7D3VkgXLFt8ycrfbmPSLoLTyOHAbWNbgMhUuFVzPxCi9UmFOEFSf4rVCpJedg+6AKQIkuGhVVWF0fnzKYoVXpfKfOmCcIsHGRFpH0kCCIXvcOVL5ze/cD75ksSvqF/y7t/YgWPud0FmFoObt2HbudFlkyH24QKkxe3kleIS4fNlcysMGMdSRDAtA3ovgtjcPDrw7uO3jRRAxs3t9fcu+U9Jxz1S2qpCF9RmrQERuYWFOG0Vrem+VoYF/N7J3aObTYTbYuJyt1rthuQ2ARICkaZZaVnha8ifplEAboHx74wsPvwvIHwqv33pgOOgdC2oDQiED2KVSqgEXgiZW/54HAdK+bZhk1qDRU9GORLiWLATmHXG1g7WvvwT3YefvT8IOy/tTRqFctVx0Kcy1EdIu/87IDgeFonG+Fzv9poJyW1N1UDBqGWyFzdLO7kJygOjXxheJ5AeO29G991wlQfV1et5DKcouZw0W6NmOkoY2jxRqjmZjIn4EH4DAiTuvCehwlMQ0ekhLDLVVxVdq/7wd4HfnZeENIf1+zc/OVKT+H3G0xNIGKEsk9hZ3vC5mbexk3AAgfh1QfuS0dLOYw2XBhOgdcB2YLEuEDVNn5AbtLOPZot9TKmCZFxJUBI+xP9l+PAcYCuuodTd+88ywScNN581dZN73ypqHw97ipAA+3M7dudtJ3EwC8rI7NbgAtZEt645Y53nyw5j1VIK0pV5Hp60ahUoBkG9xf0Gy5U6l8yuyFY1FezNpAC5D0nldQnmn/KeGI2TdHljJLzC0mKrtHqgef799898YUnBeG/6u/XnygmYb2UQxxyswaR7Z85JYRjQtxKkrou6pGcx4dfyCC8bO+WtFHIIyoW0YhThEFIRio03YQWhtxvPiLnzDyO33x/NYWrKF5OmVcESAahKvBB9iH1N9F8D6Waj5VDlTf85PDR704JhHRS770bvjyS037fKnYjZga2ZRBejAlfqCB8RT/VCxa/6Ck6XGIJMw1A1zn9KvE9ROUKcrk8R5E7FYQiAZ8cMFRdI5yVlP4oE/vJc05Hj6ojd2IYJ/r3TSr0zpn+eG3/pt8Z7sl9pW7oCCh3rWkbUnCypYguO2pmB82FCsK1B7amZ2ydQxLU6jq1TERJBHgug9FOUqhJKnJdZzcEi/ZqCUISTyQJCReUf0zga1JbaAm00QpuqCr3PrFj387JXvacIPyFO+7oPn2JPTpWzMEzNGFosoNGgFAEslkhXbSDuBAefCGC8LUbN/zBsyusL0YrehD75BbXEfouJUGKFC01heFFnNgQacYyCElEteUSEwhF3JewEaNQbuDa0+GV3zt8+IVpgZBOXrvltv/rzMr8v0+6u6GEChI3hG3n4FMnI1NHSBRusy0lWAhImMdnWIggvGL/PWk5Z6NKJggXHWc2jpoiZuKvCFYosotCkpLzOH7z+dUcP6ZOZhEV7OrQocBSNDQaNSBP1bsJEr+Onor3zdGth3/lXM96XgjdcPdtv/b86vzf+aUSEjeFbTrwPB+GZSBIYlBHozQM2sIX8zkki/O7FxoIV236+Hvc1X1fig0bsWpwwr7MqaXqmZAy2TNHBNlCnayOslHGdIdZhkwQoWDY7KipRA0q/YaVxOgbrf/Wyf6H/nxGIKSL1j1474snkviyQqEPCjTU3AYsx4YXeMzHQnZBK4a4OIEwn0+90EB4xcO70hNqCh0WUsr2yLZpyt6hQuaQCykTdskLD2Dn2oS0bjRD5VAN8RSZqoak0uAel4mZomjosGs1nCz/S2el83T4uqAyuWrrx99Z6+v9umLn4YWU2aGwBAwVwQq4DMLZQXghgfC6LXe8+8W+wmNuzoZBmTFMrsM1XML6JzunLUOEfQOLuKh7djMnro6TEAoxDJgmkkbAJWg2daJCiGh0BFcq+n0/2bp3x/m+64IgxM03aytf+4oo6O5GYltw/RARkdboCgzbQOIvU3TOZjIXEgiv2Lc1HSsVUTc0ROTtiwGTSnXICiQnQ8bHw4uPaTiER7CTDwKh7Thw/QCgtL6uHoS1GmxVQaHhY92JsUv+8aGHzswOhAAu3bT+05VV3R+qGBpsJw9dV9Fwa8wzqWWGeydPxGzefaGA8Np7N7xrqGQ/7pLdT4aHk0McU7aHKFilSg8CI/eep5RITaiqndDy+pzzS2q5psL1XKi6CV03uc7Gr1ZRggJncPQ/n9734O9daH1cWBICeHN//zU/tpKfVwsmDNNGGIZIkwiWZSGKO3wrvNAIX+DvCwaED9yXnjIVuDH1FSzAjxOkVC6hU3FqwnQm1ASIKgPIERFogkNFcBDNchAW6+Wkmicxp6bZ5MhCCj+KUaQWcQPDuNqLX/vEzv1PXOj1pgRCusmK/k3/baxk/xuNsiTiCDoH8IlISqQtNct9stQ2+lv7zTt1ni44AQsggfsX7932rmet6HG/mIdmOahTsnYuj0RV2Oahg2ob2SeTMdMxw7RMTl6kk9tO3MuMgvRGMh2T60fFMZna3Spvi2GbBup1l3tMUC4tag30ufE/ntq2800Xmv+JODnv+Zdv/ujr66t6vkOdm1LDgaqYnE1PgVt6WM4QaBbFCjWFJk0eIoOgZch37O45YZQXgiRcc2h3WtMSJKaBgFogKIBdyKPuNjgORodUO+eqjnIqi/NinyPWpHg/4oIh1VswKwgbWK5pUrubpXzcjyUjcqLBCEMu7dLIWenW4VgWclUXK4Yrb/vpngf++1TeYcqSkG626r7b/tbr7Xlr3TCgJKQDG4hj4tVoPbDcTSYDoXB3t3JQp/KAS/2c+Qbhpf1bfueEZXylu7cH9UYDhm1B1TU0fI8p+en39kNunksBjAwy0ui4ryDZu0TwLDYhAqHsJ0HvL0GYdR5hflpS9WzDgud5UEyigImhNVysDuKBF+7euXqqa3daILxu0y1veKHL+na6eiXigOjuACMDlUxWbRfd7TeX8Sb5YFLsL1JNZqrje8Hz5huEl+3bkVa7C0xvSex6EaWiJTH/dKhekHiG2o6lBEIh0cQmY8QkBUniC2b1SBM0FXI9E9GZ1OykJOSfrg/Ntrmztep76HUDdFfqNz2968jXLzj52QnTAiFd09O//r9We4q/mRo2l7SkoaCHJ/e1BFq7Lk3XtANQqjWSs5PpAKb6tEvwvPkE4fUbb3/Xqa7C442cw57uUk83Rstj0C0TumHAbTRYzVrKIBR2rcj9lOtYtDUTEpGlIPmn2kAo1qyKmLOJNKYFVQygGMdYUa4NPr1516rpLNVpg/Cyu2579ciK3BNBVwFUaqjDOKs9GjfEYMM9o8Ogb8nYrCVz9VLoeT+dgT7XufMJwiv3b02rThEoFhEEAVwqUaKUNNtmj59gTRl/LCVJKN9MFOBm/DDSv0Gez2zdtoNQEoNxHoOiQNNtBMS1owbIVau4shb96x/uOvi16ayNaYOQbr7mvg1fHe3N/0bg2FBiPWPobn2tBKHIqcu8M8sgnHRe5guEV2+/43fGevJf8QwHrgwzaSpy+TwD0K3XoNv2WT0HlxIIJfjkxIhuSlkuaFYLSPvQZCAU0pJEIvVP8GGkPlb5/j+/cPfu108HgHTujEB44/qPXfNsj/HzYGUvYtXkByE6eVlxLxmnpE5N30Ic/eM9bAKcnZ72NCUQDo98fnjX4fdPd3LPd/7lB+5JBywVipnj/E9yrwdhiNDzoJFzhvrrkdG/hCWhSEzP1mHWWbe5ZqW9xi0gRLuEprTMGgdx+kIM5BUVea8K8+SZX3rp8Ce+Pd15mhEI6UvW9d/+SLmn+LG65SBVTBZ4LQ9SFo7gymNxiKYnbY/XlJCdTdc1HyC8fuOGd53ssR8PV3QhiGLOevr/2/vSILmu87rz9tevlxnMYLCQAEiRhGyKSUqJIjmy5KTKkv/EkSU7KlfiqMSSnIQiQVAESRHERkIkAYIERHBxQAqpcslRUmWVS3Kk2IkT038sOTEt80esSJFkihsYYpulp7e3v5c6977b3RgMOJiZHswMBs1iAZjpfv3evffc77vfck4UBLCE7EEmdBpF+mkWzcGrzxLKdalSaP0gVII9/RazZy3luqXgi9nqwJuYeGn8ieO/Ml8ALtgS8oPvu+uuyvSNQ83TlNOuDSGLyDmiI4t51O1hm39XESZ50FUH3oIwarXrGy5k1Pv3ostJ1g/YEm57fP9bjZq3tSXY1Em5OPdDzMzrXg0pCgmAniVUvKHCaBQMg+wR5GYUsV6a3oGhIWNhrQ6YlgMjTFBudDB2pv7zP3n22Z/MPZIXv+Myhv/Sl71h1xfub914/bEJVlUQjLoFnbsnTbRTkmxcxW6qHpCV+DJaKh9+NWveL2TAL3bvLoN3dIAg3PLgzt9orR/+Zui4SG1L5ALXMghVzOICJ61gZhfuZ5LKIhNDh1lyEDYasIaroFxZPFVHOdNQHm+cOHfo2IJFXBcFQi6onzt+OH89j6CXXeSWhXC6DrhlIEjhWnY3t6Jkv66B8EIYXml39KbnHs9Ok6NEd0SXUk6Zgxllh/13eNVXNhXM2f1FJPKsKM+ALENj3jQ1csQUzaXqLqk+Mg0Vw4TX8lGZPDf82pMnpxe6KS8ahFt37vyl9sahP9dGq5gIO3CGqyKJbyYask4Mq6gxZfWBIsHpL29bzZr3Cx30Cxf5lbOEP//gzt94e6z6zZbnoqSVBV9QzLJjLsRLrISrHYSqP5LBqf4ctkrMh0kMu1yC356GXmGPZQ7XtJG2fHhRAm9q8nOnDj8vZK8X+lo0CPnF2/c99B/PWtm/yjcMo0lfNIyEcg8jSkYh5ke9v0QQo0o3VERT1zBdnpqwK2kJbz700Klz6ypbWHaoh0wzsx1JKgSv5Zcq5JYglNFQdVbkGZC5U8Ml2VUAI0phJxmcIMVwGH7/jUePfmixYzcQEH5g9+6h5nCpft7TUXd12OUywokGXKskLCJfJEWlJZSaf1J0sz9ButgHWa2fv1IgvO3hXZ84V3G+Q33BCDocuwpkOdJ8bSvtqnWjPAGCUGqvSO8gZMdQyRKN7CXbgh2lsFoBRnILyak3b3jtuZNvLXbtDQSEvInNd9/xmfCGsa/XKw4y9qDFgK1ZsOIChEoTvjB/biLzhtQ7vFa2NocgzAACM9ufPvDWOSvf2skNmF4VcawhIVueIVt45nrNnKPeop3rkyv796oCpv95lAsuakOLerbc96EZBiphhnInxrCfP/Djw4e/MoinGxgIeTNj++79o/po7VfzoTLSGNBTDU5ROEpm4kJdTQSkHEEUlF0D4QxptNlUmWoTUy+MP37sroVO+N/78u5P/MyIvhOtq8K1q2j5pKyU9aJs2F3rIOS4iggo2QO6u41sWWJPZZ6E0G0TZRKRT3fgTTW/e+rw0/94ofMx83MDBeFNu3cPTZaNejg6jMS2EYcxXI284ClCkz4oHyiGqTvIWj7KLqkU4jVuCS/UJ5Qg5LSkAhxamKE2NfXC+KMLB+GWw3vfqg9XtrYp1xxSXdeGZZiCIUH1gw5qQa2m64gkvBTclBZPBKiURDrnhSrVmWjZSwIfw4YOfXIS66YaG3927MVzg3rWgYKQN7XxgV2fCDaOfGeaar5DQ0jaAVwSBTMKJ/CYQDctlDQb7UYTVmntMjhzvHoioTEhV+gTzgDhZP3F8ceOLkizfvv++/7Z2UrpvwTraqIszWBDNinsCfE4YQX+mt8EpSWUIFT5a6FCT3Ul3UTW8VEuOcgmJjA01bj9zNET/2FQABRrYJAXU9ca2nvfiWhs5E69Rj07VtEk8DstaLYJq0JNuwCIctG/liWSPmGtvi4HhMP1+ovnvrwwEG45+OCbyaaxbWeCDtzhEeRphrDdhk7qSua86JKu0Ve3Q75o2uXxSAYLWVAiiazIs+OyjK/dgjfd/P3pLx//l4MeriUBIWkSr//Fv5ucyxMhnWUYFjyrhDhL4ZNHjzwcnRB2uYI0DtcuUdBlWsKFgvC2/ff92kTF+/aUoSNyHJglD/H0NMxKBSb5Y9L0oi6JQS+wlXw9GXiR7qhIzhf1z5KuRbZyObYOPYhQCUNYb7e8t48f9wf9TEsDQgDv2bfjhsa62hv68AjqfiCIZF2vgmm2yHieUHrNSAdAk792N+PLckeHp+pfPffo0S/Md/K3Prk3b9kOMq8MuB6avi+OA+yY95vT0AwNBs/sa/TVBSH7YjMeBVQzQYacXDNagij2MRTHqP2/qX9y6tmv/vlSDNWSgZA3u2HX53+9Wat+y7luE+rNAE6lIjuSCT5D7sSzVeovxYOu1GvO5Y7qUY7hqcnfOfvlYzvn8wzbDz7w8fHh8p/GpgMfGtIgAiwbTsVDFAdAmsCxbSTx3OmJ+XzvanqvACFVxjQNZsrSBR4OyR1DECYwshh2GmCo0XzirYPP7F2qZ1tSEPKmt+3b9Wx9pHxPvm4UzU4Ik3UaeQ7T0AR1Itm81rAhnNMSEoRDk1P/7tyjR++ezyLYemTv22dc4/rUcGCXKl1OyiD0oWk5XMdCSA/FuJC+Yj7fcVW8Nye5MWnrDWjkm8k05Dkj9gkqSYjaZP0vTj329EeX8lmXHITCIu7f9T8nhmofzmpVGGkOLclg65ok1GHZ1FI+4Qq/9uVYwvmC8NYHdn389Ijzp9HIMMJcQ8o9nkzazHmlKVzXRNIJYDNqzUW3wsdoqW6Pi18TDOOGJHxinbMQP41hpglGAx8bXjtTfuXkSUosLdnrioCQgqOvr69MBWPDiLIcpq5Dp6YbI1HGhYuACWT+v1bc1LlAyDzh+mb7xDsPH77sVpm/c/Sxd04h3Rx5HiKNhERy/WhFJNRAIij+2Gi9lvUFOSbEHV1y3aBrHglKDzdO4NVbqI6f3/6z4ydeXTL0FRe+IiDkd91yYPdtbzvGD8JaSbMqFUTTTZi2LQmDi55D/imqONbQa9Ag3Pbgjo+dd5yXhq7bgsk4RmYaomZXvqSuBOsiqSnBF4Vdihr7NTTqxWgwBZGnyFigbTlSgSrN4NZb2NKIP/iTp5766ysxKFcMhHyYmx944JfPbir/WcvM4DKRHyYQ9cMzgCiWyxqxiIMG4Y3HHnn5vKF/CLmF3LIhulf6QEjrx3wYC+ivgRCCtDfJEyBJRXWXNjmNsVa8661Dx565EgAUa/9KfZH6nk17v/hZf8PQ7/mUGTZMeRhm/WThgiqreA2EvbK1y3VH3/fgPR97e6T6EnlELdjQdQORliNTTMuiUFsmpFW/HPNka8v3KKwgPS4yx+eJKFyw+H+jg+G6v+ftQ8ePXElcXHEQCtf0oS/uPlvRj+gbNggVIKYt+t3QfiBeycFYju8apCW8+fE9pyfX1Tb5DnURUtEv2KXwUXWRXcEeaR7XIgCVp0XX3Cs65bNOG6N+/NVTjz4z73zsYtfNsoCQN/2efTsPTVRKe5NyDZE5e5h8LZwRLwuEjfaT7zxy+KF3m+z37b3vY2fK5kutchmRZcEwHQnCJBEBGFUTqegoFdXkWiyUUBs+labKrJRpNlCN4q+//uhXPrtYQC3k88sGQt7stt33PDc5um5nu+QI3b//VwAAFUJJREFUmj0Fun7X9GoP1AwKhDcevP/lxrrqh1rCBdXhDA0jrDdgGuSELUAo+FRktDShGpHGLvK1py+o1pSdpHCaHawP0q+/+viRZQHgspwJZ+4Umx/+0ovNavmOnNLbJg/JRVCGGgGkmGNEr2Dv5mdVN/5MV2o+VBn9O8/yu2OylYklUtI/JJkyNQ6kTFceJVg/hyV8/5e+9JEz6+zv1UsWDNdDgBwpgcd6UVJRCtqGHo8MI6IiWLPMIOzXB5QUgwUNZt8iebf56Z9HxQeq1sisFl7JfYsuEqBMusKJ6a+/+cTyWED1mMtqCdVNbN1z74uNsnmHtq6GkAdmw0acsdtcE9JVTKiaKVVhlUilLLBlaF01pPaDU6zl4sl6kyhrVEUPWcElImgYKfyxEB9iAJ+5YBFCgjAjCEGtPBk8Ye3ihrb/5JkDl3ZHRx478Fe+mX/QrFWFPkiYJXDLHvwoZB3IrLW5K6EzvqsPyElh7Sal2LpM7XLTUO5zb9NVtcaSC4ZrguuATeNicovd2EylvDfdcM4wBW7iwEdZt2DGGfIgRHW69Y1TTzw9p5z1AKb6XS+xIkDIO7xl367nJx3t7rBWhlaroNVsA7bXBYwprIMEUMr/hOCMLACf+boYgGJ/7C5G8dBFxGI5SY5kK428eyE7XeTtaBVYy0jLkOQBxhr+kdP7D+2ZbSavO7DnI2crzvdG1o+i0WyKMkCNXRNpAsM0LxJ1WUkM2lKE0+gJr8wAIZ+3Jy6rnl7pW747CFVXBCOgSRZDNzUYaQYvzmC2fFSD9BuvP3502QG4ItzR/oX13gfuPnxmc2VPwzJgD4+ICJ8VET4F1YAii2LXOXdMlhwx0d8F1MXLtN8t6e6s6skFoY+0rsvxEvdDx4huUlf7XRfd3iSA4m8jBFg3Wd878cixJ2a7x9qeXS/HmzZ8iHwxFosfKFKiS8ZowZE5w86vJBAW24/4g9U8SppM/lySRAvaCfFv2d8n/iZ+0CNk4r8o2klnVhc7sHwv32eaOtIsQhJ1UDYN6I0mRtvxkTceOz7rprYc62DFWEL18Jv2fvH+1sahYy3TFIzeorq9qHRP9RyJSR9UlrwRiFrWU5KdTYi0myIrwvFd66MsUCFksxyDLwxyYcnFs4gcXmGxC3r8MGlhrBXsOb//yYtyVzff+9sfaW/Z9r22V0YYhnC8EprNBtxqRbhfrelpIe7S/1pJIOQUsH3oAta9QudSeSj9x4kL50ieIXv8OILKj2zG0o1Vv0kpWwZ4OqA3Gqg023veOfTcFc0DzrW2VhwIecM3Pnjvp06tK/1htnEEeUxDocGmGCkDDnThjEQS8AhiHrO7U/aXHjDWIcQfWZLU162jQLgSzkRyNy+mgM3ORSJdVnVKC5kkATZNt+47feDo8ZmTufnhe/7ivOn+or1+TASx2JVCC0iLSEWl2Qh9VxII6YUoNS8hSaZL91x6LL1JU2f4wg72DYMMaEk1MPJ0cNwIQuad5frQmf0KfNjtJkab4edOHX56UUS9cwFqIb9fkSDkg2w7cP8HxqveXyfVsgir22mxY/I8KA7icpF1GbwFa1lvCMTE9IGw3yIqN2emsvBCBnAxn+G967k8+6WGBGHvPFsEkpIA68cb955+9CvP9n/XLXt3/IPmhpFX0vIwpoNIgk7X4JZKgsCJQQi3SmrDC+lDViII+VycU8nQXrifBQglB6icZzGHBJoKuhW8MFJ2jx80kWkasmIQaSVdehr1KYx2Op9+89DT31zMfC3VZ1csCPnAt96/44aJsdE3mq4BjVFSlrnlLDjWBVWiOAPwXDjjTDfTAkhAynyY2FXFGSQTasLLWcDMZ7FS6U6neoqEFr6wBLxj5vCcJMH601O3v3X46QvIhUYe/uIf1YdKv2rYZSS8jiUJs8TZ0JGWkH9n/nUlu6NKsbnfCvZTsyt3VWlDKABy3qQ7X7CkyZZccZ4WJY8a4MQxvGaA9e34H/74yJFXlgpEi73uigYhH27Lrl2laAj/vVPyfikVyk8OMiak2QKV57CKnVJMQAFGqSneC29Li1moQBWBGMWwHC9j7aQEoawWio0YmZ4gVb4zi4nTDOZ0C+9J9Nt/uu+xLgi333vXrac3D/0oGqkhjjLYpiPkrm3bRhhHAngcG7qoM4sdVpIlFA9eCLJ0Nx+1ItU8USu+r9a168VwWy0C48p1FQIueQYzzeGkKbwwPmOPj//9N46eOLNYoCzl51c8CNXDj+2/+/F2tbLPGh5BQ8hVWeCJm81QjqEjbHUEXQNz3kI7wDQRZAkyq2jV6U6uTAWoaORyKgULFyuTIMz0i0FoJBmspo9NfvipNx558ttqLNZ96a4X/Os2fCEsOdINu4zXStQXlB5LLwp6ocWWKQh6OqIhWdNk8UahDZHGETQK1DIazMKELIVFq0hPoN3BRj87+frBp+64jKFZ9resGhBypEZ37/hkODL8nwPLhlUeIpMpMrpxnTYMwxS0+2XLwfR0U5yN6OKErJRXSdxi0mUkRwZsllcVSkbzpEWIhWvFXV1GTJkrBNwghH5u8jONI8/8J75tZN9dW62xjW+1bRcdIWB5efmVlQ7Cfk9GDAejxIBQ9aJbTQBSpqzTbMAbHRbnvsDvADqp3TN4loGs1UIFKcyzE587c+TEigvAXArtqwqEfIjN9++4wbh+83dDGFsnkhDZMC0ia9102LqNqN5CyfXguh6m6nUh7CgibspgdGW61Rlx+djeCDZBqyAabYvWJeE2S+JZPhYLjK0wQhS1R9LG1GZn86YfEnyWVUUYZ2CGZlVLm3UDMEXgpVip3DRoKQm8MIpgWDriOAJMJosjMjRBJ2sfS89cF/7UJMY0DeWzjfe+dvS5v1128zaPG1h1IFTPtum+nc+bm8fuPlPOkXiOCLrkzQ5cr4Y0zhAHAUoUPiGZVFHGJk6FShSy0B3o5uXmMWiDeiuDC8KdEjt/KgqtLVFsrSMuqAhd3nscIAvbsMsOOjoEi3bSzES/IJiMZundJWbyMg3loB5p3tdReT4VgOm/gPBkeMb1XKRBB2bZFa6p57poN1uwNA1aksMMQmj1xtcaP33nX+MP/qBoE5/3rSzbB1YtCDliW+/+t5+aGiv/YbyuJqydbtPqadwkYZkO4jAUvJqFsE7h9qkzSJGHuswz1VLMUD/5rJYnAoRMxRCECXUQRB1bShTCNjUBtlDPkQcJRssbEYUJojySOgqr+CWT9r2aXj6KqA2mt25Jd9Qp2QjbLWhRKhixqRPocQMKfHbDf3L8qRe+s1qHYFWDkIP+/oP3Dr+TWf818+wPp5USppEicywgoVwwAzUsDIbgVJEujgRh13osIwilhabrKYVIGCxyyUdRgJCW0rR0ZFmMiJawZCI3LZ4WEZ5twK0MidTGcta/Lnbhy8h1r3yQFlFuTpnMG9KTcShiksGFBjtMYIUxKrmBzrlzf1xOWp9545mv1Rd7H8v5+VUPQjV42+6883Zs3fC1cQfQ1w+hNV0HKjWwrYC7rJXK3ZYLVuSkii6MHuvylZ8GZQF4L3GRmuiB0BIATUMfjufA0BOh4ZGmGWzXo4kQ/Dzkx1yt0mayekke1lXlDDdMke8Uqs6FSAQzwlGCUgaUOwlKYQK3mXz6b48eWZHJ9/mupKsGhHzwD+/aVXrVy1+oe/bt9uYxtIMOYPIcQRDqXXIjYQkLPbqZAzZbol+c2Yo3qljkzLI3gpltUcK6zSDvEYUexQX6K3f4XrUxRIY81/E+eU5NYYnNQrQi8czHIFQcoVQpw49o/SR9Pdt/FgrC/j7N/hirsk79Y3PRQikqlC4crxkNwjNluGd4HeJMXDDtKXdUfiej3lJaXTM15H5HtCCVghDORPO/WZ38t9545plVbf3edWzni+KV+P5tu+/6aLhx3XfP6zmykifcUoQprNyEEWvwSiU0G224noMwDZAZTHbIFiB6saw4iX0fhmULN6j/TEmgKXeWIVdD5Pro7rJWUda28vfc0aW7KVMk6txGt1j1wMnqD2kJVMJZheZFpWzhqilqCoJNLHoBANXSs/DzIC+lKlb6OxZkB0KvZUhVGl041wV5c1HsIDcCISgm3ib/zQpYqQjseiV0OgEMzoVg12OHhybqghmLYpCFsgiO4yBJI8Q8I5vchHIkjQZqSYxyK/zUqUPPdfOlK3HtLeSeripLOHMARvbc+bmoWvvdtmXCGx1FTIQl1GVI4BoOy8GhuwaCzBeUk4KSn639LBcrlxH6PkyWyxXlboKdq7CgatFqmdk9c/L7I5H2Yw5SylCrgvGk625K2Elg9voaFzJ5g/iMsqK9mlW5ifRAWHgBfVas914CsSgXEx0NPassz6mZ2NhYtZOEITTbRckuwfd98SUaz7yGjSgIUKlUEYQdCVjLgucYaE9OwEkyeEn0++ZU+vmlUEQaxBgu9hpXNQg5OB/YvXtovIRDb9v5jrTiALSMqYaqQW3EFO0klKBxS+TVEBU3Ik2cpLIMrtDK6E8DCAJd8sR2OT1ldQfByrNMF4SFNVSNqfRTyfcpGpOLGtHlTCHIboUL3WflLveXtyn12u5zqOIHDk9CT0B1xUsLyMfuBlYEjQYPfXSsDeQtMsqbqDllqeBMFvA0Eq42BYP4Z9psYQg6amH8sjHV+jevHf+dHyx2oa/kz1/1IFSDf9Mju7eNG8nRqFb6zcQwkEQpNMuC7rqwnRL8ZlM0D+swYFNK2g9Efx53ZmX9VJmVWIMFZ0tiFG6byngUIypAWVR+qDMo70WBkJE/4bYu3Jtc9LqaCcLZAKg6O/prcYUpF26xBCGpR6RrKzcg1ZYkeF/YchaHMCoVpH7AH8BhlUsYI8sS5GYGyzbFz9JOB0YYYSjT/zI7M3nPqWdPfH/RD7kKLrBmQKjm4tZ77tg+OeI93hr1frPD80xiYMirYXpqCtVqVZRBtUJfcrR02hKoyh2Vp7fuIpOHG4ZcZXSPL5Gv5F7PhSk+J9nNVBRQgY4WU3jARWH5cq2V2cr21GbTfb7iufuDMLKLXYKvV47Ua1IWQ8MibCbUC/Iu5m1rw8PodKS+SsmzkCdtRNMNlDsxRjP9r5y6f/cP1wj41JyvORCqB7/+4I73tmzrkGFVPh0EGYbHRkXB93QYiqicOVQVAiHCtyLnS2HZBAzF2bCgpRA/l2dAwoo0C3xJ4KqgiwxZ8NVjvpYRU9XdsRwgFNarK4w5g1TpgshmL9gi+/pkVY/YdIr+P3U2FAGuopdT5P8yynJLTUqSIvDlB22Uq1U0z59DJY+w3jRfsurtvT89sjYs38y5XrMgVANx20O7bmk4zp6mmX0+r7rwWQjsOhKA3OcJKkE50QOXXFwy8CKjoHJRJiLB3N+1oTpU5aW4rmdy2ix3ol09FzcE4Z4WAyOsXjcvIztPRJuQ4L/hc/M5md+UQOyNj6rFlRaQGQgCUEeCsmMjYtSZBFZ+iA2m+a3aeOvgD548flWf+ebaYNc8CNUA3bR791BQive3HP2BjkXy3Bp8tkzpDJKLJVh0d8uUhDrbKX4Ude4TSeaZ3UVFgKa/MkS5epfXAzHXNC7296pBtncdkXDoWx1dpoJiI5HPrUDI/KAswJ7p3qZJhLJtQ49CJO02ylkGL8fv6n7y6OuHvvLmYu/8avj8NRDOnMWDB/XN/tnf0jePHTsddTbm5ZIU1qyOIGi04ZiuXGhpLppnGbjR+CfFTotII3/OwnHSMeaZpGU0GYjJivMkWa95VioS1bMtpEHqccz8HtXoK/g4TVOkCGzbEdHhPCGTHf+qCa6aMGG+zkRK65Uk8DwPAd9vWkjCCAlilEolRHEMwzIRhQEpzkSnf9xpA9R713QM0XuYaj9kTocvvPr8842rATyDeoZrIHyXkbz5wP0fmLbzO7Vq5bc7YQqD/C0U17RILWiIhWc6DoIohFcuoxMGgqiYjRGWZSNjgylrQ+MIOYuzHQc+k9COKVw0AeBZaleXQiB1NjkB4X5SlZYJcj+Gy7rUNJdUGXmOIE6QMW1jspic7VMWgk4HummixPahdgfVsouAASxNE4xvw7UakihE1OqgbOjwMu3P3DB46tUDR/7HoBbt1XadayC8jBn9hZ07a2fN5NfrrrPD2rD+g/U0RObaMB0XcSgT0ilPU7oOkhTbpgG/HcCgSYlTOAzBGyaafgdGpYRAlNMZ0CmEIxRzLz0NCjzzBab6XD/FxWzXIiluRnkwSkYHEVzbEdFLVg1xo7FcB53pOszqkGyu5Uk4DGHZrGcFgulJEVWmBWU1UFJv4Pra8DTqraP6eP0bPzyx9Eq3lzGFK/ot10A4z+n5uQcfrI47ySdD0/hsZpu/kuY8P1bgZwkMW7poYuGbphS54cIljT9M+HEIq1ZGJwqF5aB7arA6VJ0ZC/f0SongCPeZSrURa1IrCDo+KiVP8NWESSiBaEirbZBWIgxhZhqGK1X4003kzOl5DtrjExgt1/4mqTce2TDR+eNXTp68kOJtnmO81t5+DYSLmPFbdu509Kr10Zap/3MMeXc20wgRgVUuoZMl0Dw23xjIwghWpgvKjWa7DcMriShpHEqW7Nms3LtZwEuBdD7XUYxkmmUK3faYNBosPMsSlFmyFwai9oXNtLbnIQ0DVC0X/vgknFzDlvUbp8Oz5/+93Y5+UEP+v15eZd3si5j2gX/0GggHOKQ37b9ne6Lr/6iZJ//U3bj+X9RD6iPpMAwyiesCoHqlLARb9FQTAQ8R0FFpAYrhFK9LBWbmspKXcltn+7kAGTk7uRHEKUqmCS2J0W40MFSrIPTbsAx2L+Zw6IY2Wt+q6ca33Uz/k785eOzcAIduTV/qGgiXcPpv3Xvv5jDTbtNN54O5Zv1yYpsfn9BTRKYhzlt0XzObZ7K8S004m2x4/y3OdTa8iOLwEi6uis7GQQwtS1GzXCGjlk43sb5SRQn5/w3bzT8xk/Qv9Sj+sdPwX33l5ElZ6nLtNdARuAbCgQ7n3Bd73+7d29olc0uSZdsTXftwXi79QqDn7w9YMw6mOXRJ7yeY1Dg9Mp0hqmv4J0OvghxK/psvBTzxJ6OZmUozyDqdPNMEDSTTDryepQEu2QZywMuN/2Nn2f9GJ/iRqxvfd2L/tVceP/qzuZ/k2jsGNQLXQDiokVzsdQ4etF0nuE4zvOvTLF/vmOZYksXbDWA4N/X3QsurmaFbia5tyg1jg0ht8P+CuIrgJXCtJD2bp+GPkKRntRzjepaf0TTzbJpr41lqTGRpOu6m6dnt77zTvBZAWeykDebz/x8YhdfXU0RtjgAAAABJRU5ErkJggg==;" vertex="1" parent="1">
          <mxGeometry x="230" y="390" width="40" height="40" as="geometry" />
        </mxCell>
        <mxCell id="WdcBxDvD3YkukcvI_A6Z-7" value="FastAPI&lt;div&gt;order-service&lt;/div&gt;&lt;div style=&quot;&quot;&gt;8080:8080&lt;/div&gt;" style="text;html=1;align=left;verticalAlign=middle;whiteSpace=wrap;rounded=0;fontColor=#006633;" vertex="1" parent="1">
          <mxGeometry x="290" y="395" width="90" height="30" as="geometry" />
        </mxCell>
        <mxCell id="WdcBxDvD3YkukcvI_A6Z-10" value="" style="shape=image;verticalLabelPosition=bottom;labelBackgroundColor=default;verticalAlign=top;aspect=fixed;imageAspect=0;image=data:image/png,iVBORw0KGgoAAAANSUhEUgAAASAAAAEgCAYAAAAUg66AAAAAAXNSR0IArs4c6QAAAIRlWElmTU0AKgAAAAgABQESAAMAAAABAAEAAAEaAAUAAAABAAAASgEbAAUAAAABAAAAUgEoAAMAAAABAAIAAIdpAAQAAAABAAAAWgAAAAAAAACQAAAAAQAAAJAAAAABAAOgAQADAAAAAQABAACgAgAEAAAAAQAAASCgAwAEAAAAAQAAASAAAAAAmrDmIgAAAAlwSFlzAAAWJQAAFiUBSVIk8AAAAVlpVFh0WE1MOmNvbS5hZG9iZS54bXAAAAAAADx4OnhtcG1ldGEgeG1sbnM6eD0iYWRvYmU6bnM6bWV0YS8iIHg6eG1wdGs9IlhNUCBDb3JlIDUuNC4wIj4KICAgPHJkZjpSREYgeG1sbnM6cmRmPSJodHRwOi8vd3d3LnczLm9yZy8xOTk5LzAyLzIyLXJkZi1zeW50YXgtbnMjIj4KICAgICAgPHJkZjpEZXNjcmlwdGlvbiByZGY6YWJvdXQ9IiIKICAgICAgICAgICAgeG1sbnM6dGlmZj0iaHR0cDovL25zLmFkb2JlLmNvbS90aWZmLzEuMC8iPgogICAgICAgICA8dGlmZjpPcmllbnRhdGlvbj4xPC90aWZmOk9yaWVudGF0aW9uPgogICAgICA8L3JkZjpEZXNjcmlwdGlvbj4KICAgPC9yZGY6UkRGPgo8L3g6eG1wbWV0YT4KTMInWQAAQABJREFUeAHtfQuYHEd1blV3z3NXMjYWfmj9AIxNLIIBmYADxCvgI/ELY7BWawPygyDdmy83cPO49373xvGYhCQ330cC5LsPKxhsGWxp1yaAbRnCDVoHiE3QAiaRAGOwHa1kWzLYsrQzs/Pouv+pnp7tnZ3VTPf0zHTPnLZX09NdVV31V/U/55w6dUoIPhgBRmAZAmpKmHtuFQmlhPTenMJ1dev6hMoJw3udzxkBRoAR6BgBIhYiH29B6r7Ts7+cesUJRDxLru8Wlvc7n/tHYAm7+8/OORiBwUFAgVDkBlGhFuV3rH2zEPL9kH8uwtfTlS2SUqqjUoqfKmV8tVoqfX7V5mcPaQnpFiFlTtiDg0TvWsIE1Dus+UkRRoCkG7l1tpyfGlsLKvm/maS8HJQjRFmJalUIEI0woHQZJPOYUhSO2vNQwj6W3TT3V9QskprkhEBKPvwgwATkBy1OO5AIqKl1STmxt5S/e+xN0hBfT2eNVYV5m8iEpBqy9TjvCUgI32yphA0ySiZXGaJwxL4/Ozl3Be4wCREIPg8mIJ+AcfLBQqBOPlNrLwK1fCuVkMZCWZXQymSLlhI5lTOrjFTxmP2NzKa5d1B6loRaoNZwmwmoARD+OjwILCGfqvxWAuRTriiyAbVtXIZNaCE9YqQKx+zdkITeTugxCbU/hpiA2seKUw4QAl7ykbb8pmVKs1z1Rz4eOEqZUSNZnGdJyINJW6fsy9AWTJxokBDwko+A5NMh+RA0SUhAJUhCby/sHPtHukAG6cbpfLrOx1IEWAJaigd/G3AElpAPbD4JE2pXcMmnES0tCbE61gjLyt9ZAloZG74zYAgsIR+y+YRLPoSWloSgjm3I7xj7Bl1gSYhQWPlgCWhlbPjOACHgJZ8QbD6tkGGbUCuEavdZAmoTKE4WXwS85BOSzacVGGwTaoVQ7T4TUJtAcbJ4IrCEfMjmQ1Pt4dl8jgdKnYRYHVsZJiaglbHhOzFHYAn5kM3H8u/n0yEEbBNqASDbgFoAxLfjiYCXfHpg82kFEtuEVkCIJaAVgOHL8UXASz60vCIEP59OwWB1bAUEmYBWAIYvxxOBRvLRaldvbD6tAGN1rAlCrII1AYUvxROBJeTj2nyiQT5eQFkd86DBBOQBg0/ji4CXfCJg82kFJJNQDSFWwVoNFb4feQS85BMRm08rzNgmVEOICajVUOH7kUZgCflEV+1qhiHbhIAKE1CzocHXYoGADqNKkQwRTIzUrj74+XSKU52EhnUVPduAOh1CnL8vCLgB5HXweCW/HaHZriB4DK1NiCWgIMOF8/QVAR1xELtXFKfGzsF684eSvVte0a12D61NiAmoW0OKy+0eAhudLXBsW9yVyRpJhFGlGM5th1HtXsU6Krmujg3T2jEmoI7GDGfuNQJa9ZJC5XecMZkZMd6I3SuwcU7LAPK9rmbQ59VJaFhsQkxAQYcK5+sPAuPuBoDqt4UN6pFLt07uT6VCfWpdHRsGEmICCnXscGHdRIB2IcUuFLa66/STMXtyYWmBNupauo1yN5/fw7LrJDTo6hgTUA9HFT+qQwSmHbeRvLLOwgLTE6q2IAYa1Jncujo2yCTEBNThO8HZe4+AYakRy8RzlSag3legd0+sk9CgqmNMQL0bTPykkBCA6adQwb6kUMeG4airY4NIQkxAwzCEB6WN+xyJRxnm/nJZzWN/dhq/2hA0KE1coR11Eho0dYwJaIUe58vRQ0DmYIDOCWN04slnIP78IJnUIhDt0T4MR10dGyQSYgIahqE7SG282DFES6nuEJYmoOogNa9FW+okNCjq2HBo0S16lW/HBwHy/MGgVTQlj5fwR5mUPK+woMpoQSI+rei4pnrt2CDswMoSUMdjgQvoJQJEPrtzkH3gDa2U/ACWYQjT0OQzlJJQ3NUxloB6+fbws0JDYM+tInHhVlEuTq29zDKM+ytVRY7RREI0QT8sR+xX0bMENCxDdcDaSeRD8YDSEwceWKjYV8AxURhSk8/QSULpEePtcbUJMQEN2Is5TM2RW2fLe6fWJUcmD9xfJyFjeEkojuoYq2DD9MYOaFvdsKzzO9ZenrKM+4ZZHYubYZoJaEBfymFrFpOQ7vHY2YSYgIbtTR3g9rokVIQkZA25JFSct7+R2TT3DupuHUFyQhvoI9f7bAOKXJdwhYIiIBGgnmxCabYJlcgwHQebEEtAQUc754ssAq4kxDYhgzynd2cn595OnRVFSYgJKLKvEVesEwSYhDR6kbcJsQrWySjnvJFFwFXHlkzRs5+QkLAFkSQUlY5jCSgqPcH16AoCZBNaB9tQXR2DuzR20xhKj+koqmNMQF0Z9lxolBBgdUz3RiQXsDIBRelN4bp0DQEmoUUSitIUPduAujbkueAoIdDUJsTLNvpuE2ICitJbwnXpKgJkC1qydgyrV4d1AWtm1NgQBT8hVsG6OuS58CgiwOqY7pVITNEzAUXxDeE6dR0BJqFokBATUNeHOj8gGAJKjo/fYorxi5dkX7P3sJqenggl5g9P0Wto+zo7xgS0ZHjzl74jgDir47fMmDO5DZWV64I0uVZpVs7tvcOSkEajbyTEBOQdjXzeVwTGx3dbMzMO8Wz8nanR/FH1FmEYv4pKnYLdv0rSkE9iO+Y9D26/+vtU0VxOYRLlFnzmOtqah0lId3tfbEJMQBp7/qffCKzfcmtidtvW8rtv/PKqarX0J1LIzYaVeplhWotVw5YYlUpBCLv6fSXFXz1w+8YddHPjximzU7XMJSEO5WEke+knxAS0OLz5rE8IbAH5bAP5XLF56q1KynsT6dUvK5fmhbKrVUg+jTufmmYiJQ0zIcoLR79iH3pm4sEHf2/BKz0FbQbbhDRyPVXHmICCjlbOFwoCkF6SkF5Kl2yevsQyrV1CGhBwSiUUTqLPSn5qZISuJtOrk6Xiiz/I5tWvo4zCeA4q3HFtR62r7EpC9bVjQ7zbRi/WjjEBtR6TnKJLCHjJxzTNXdjpC1KPXRFSk087T11IJEdS5YVjj2YL4iImoXYgaztNT2xCTEBt9wcnDBOBpuQDnQvP8BsqopRIZpPlcuHRefHSN8/cvqHIklBoPdV1ElpJxA2tBVwQI9CIgJd8LFfyCUY+VHSyXMqXEonsBSPiF4+MX787TWoYkVDjc/1857VjGi29F303w7uyBORnVHLajhHwkk9d7QpOPt76QBIagSSUfzQ7b7M65kWm8/OuGaZZAuq8c7iENhHoIvlQDSAJzWtJKJ8RD+NZmbAkITJMc2RFm0hoQ9g7sDIBtfnycLLOEOgy+biVc0goNXpBfsR4mNUxF5ZQPruijjEBhdI3XMjxEPCSj55qp9mucNSuZo+tS0Jh2oQ4lIeGWpNQmKE82AbUbAjztdAQ8JJPyDafVnVkm1ArhILfD80mxBJQ8E7gnC0Q6CP5UM3qklA+Y7BNqEVf+bxdl4Q6tQkxAflEnpO3h4CXfHqgdq1UqZpNKMs2oZUQCn49FJsQq2DBO4BzroCAl3x6rHatUCNRV8fYWXEliAJf70gdYwIKjDtnbIZABMnHrWadhNhPyIUktE9NQkFW0TMBhdYHXFCEycftHJCQs2yDSciFJLTPQCTENqDQ8B/ugrzk00ebT6tOgE3IWbbBfkKtoPJ9P5BNiCUg3zhzhkYEvOQTEZtPYxUbv9fVMbYJNULT8XdfNiEmoI7xHu4CYkg+bofVSYjVMReS0D7bVsdYBQsN8+ErKMbkQ51V8xPK6Cn6i3jtWJgDuK6OtfITYgIKE/YhKstLPhG2+bTqkbpN6CReO9YKK7/36yR0vB1YWQXzCyunpyDw9TCqMbH5tOo1VsdaIRT8/nJ1LIcdsXNC72TCBBQc2KHMOYDk4/Yjk5CLRMifUoqF9KiRKhy1789Ozl2BtcgS1/RmA6yChQz2IBc3wORD3bbEJhRmKI9hjycEwkkhwP1C5gTj8vzOsf9C5KN2O3G/WQIaZMYIsW1e8iGbD8JpdDOkRog1911UXRIKc4qet/wRtmkIAxstzVfL5Ves2vzsIQVVjCUg3+Nz+DJ4yYdsPgNMPtS5NUnIiTGNtocSWZHiCS2RhAwJQ4gOwB/KPvcxGJWGbYtSZpUxYiaTH9D1PW09OIkPRuA4CDSSj946p3vBxI5Tk57eqpMQh3cND3fsZmsI7LOGH7DfolKnT5y1WQULD9+BK8lLPrR7hepuJMMo4tcbdWxYNj9Uwk4lpbFQtp/MHDn1XLl1tswSUBSHfQTq5CUfR+3qahjVCLS4aRXqklBXw7uaQ6KOQdyBGgYJSK56/sTns4Q4E1DTcTfcFxvJZ0jUrpU6fQkJAZvu2ISGhIQwA0a7b5dOzBTLBDgT0ErDbkivM/k07fg6CbFNqCk+7V5UJu17q8RBecXBPPkDMQG1C90QpPOST4yXV3SrpxwS4i1/OsHXFgltdn6YCpndJiwmoE7gHKC8XvIZgqn2oD1Xl4TCtgkNyRQ9lC84QNvqLuqA9ScKmwko6FAcoHyN5DPkNp9WPbuEhIBdKDYh2ot+CQkNnk2olBkxzEJJ3Z+99sDDakqYckJUmYBaDbcBv8/kE6iDaySEUB68DXQ7AFZSCZkszNtHMQO2VWfY56wFYz+gduAb0DRe8hnw5RXd6sHe+AnZcKCxBXlMkwk3bkclYUqrXKW1O+LXs9fMfYfWgckNokINYQkobt0ZUn295MM2n8CgLlHHwlrAOkDLNhbJx1Bv1eRz6/qESz6EOktAgcdefDM2kg/bfDruy7okxOFd61hq8qlUVVUZ6m3ZCbL7rEuSraueAicsAXnRGIJzJp+udPKiTSjkyIoxNUw7kk9F2ccjH+oJJqCujMdoFuolH/bzCb2PQELOlj9hTtGTxEChPEYmD9y/ULGvsGh2zIj0KvpKwqrZfEyoXStIPi76rIK5SAz4p5d8yObDalfXOnyY1bG65CPaIB/qAZaAujYOo1Mwk09P+6JumKbND4H9sPgJ1W0+7ZIP9QoTUE/HZu8fxuTTe8zxxK7ZhCKqjjlqVxs2n8beYAJqRGSAvq/fcmtienqidMnm6UvY5tPzju2KTYim6JeQUP8jK/pWu7w9wTYgLxoDdD6e223N5DZULvvgzt80rORXBzyMapR7bpBtQh2RD3UaE1CUh27AukHtMiH5VC/d/MVzpaz8SBqWoWwbnqfKClgkZ+sMAYeEFo49mi2Ii9A3BfcHopNiXb+a+R1rL09Zxn3wucE6z555TNdtPq2m2o/XRlbBjodOTO+tW7dP77kkZfUzVnIE5FOF8xeTTx+707EJDU4oj8A2n8Y+YAmoEZGYfx8fz1kzM7nKZZvvfaeVTH29Ui7QmhuWfKLRr3V1rKtb/nRXEnLULlrbRcsrWvj5tIKdJaBWCMXt/vjFusZK2tdKqdcuamkobs0Y0PrWp+jJWTGsKfpla8e6F8pj0eYTAvlQHzMBDdhIJ8MzNQmi7ZtsWy+74T6OVh97puhFnPyEFsmnTSfDdmDnwdkOSrFJg52XcFx27RdOxMcpto0IDop/ZCLYfbUp+tELyFkxrFX0XVy24Wt5hR+8mYD8oBX1tLlbNAGVzUwCVU3Qcgue54xspy1Rx8IioWXqWOd+QouST0hql7dH2AjtRSP25yQBSXXFlvuy9kLhp4aROB2z79iJiaWgCHdt3TBdD+UxDh+uGUeVDlrvkKboNfm0CqkRtI6UjyWgTtCLXF6pcrmccd+2K/Igop8ZJglCkgiIj+gisGgTcsO7gnzIl6uTKjeLMY2N2GGeFno/rlZlI10pSavaAyyvaFW29z4TkBeNATi/7+BptYGrvmYYFkxAcE3jI+oIODYh8hPKyn++5JJPp8iRlH5MOqm41yZUse3LaVPAdErSrxLNTlCI18axQd8ruFpOZ40kwqguQKB+S6dT7ShzxaOjBq5YKt/oGwJXnP40DSxRNqrbFxZeLCN6DGxBywZa3+rHD14RAZKEFpLp1a8zXnbqlJPq5hUTt3tD24QQBjU9ceCBckW+sbCgfpIZNZKZtDQhEYGS9OggKVnR90xGWrifKOTt74KwXpOdPPCIojCqDZEM231+q3RUAT4GDAHXzf+yzdMfS2VOuGmheGQBTUwNWDMHtTmlRGoUZHTsmgdu37jD7ctOG7vnVpG4cKso026k+Z1jHwbXbFZKvS6RkCO0O2AFP1uw9RyBCLTHtuVto9fuv5ue6Q0g32kdmuVnAmqGSuyvOcZoasZl193zjWRqdENp4SiJ3cnYN23wG1A1rZRpVxa+f/8dG98ACsA7KhtVpUAo7M4Ja0PO2Y2CCjg2dfap0q6egYmyjF2R81lZeUpee/A5ukdEJaaFQXt30fduHUxA3UK2z+WS/QB/9jhmVLJnHf5mMrnqzfhVZRLqc7+09XiozFCQpK3k63fdftUP3MXFbeVtkQhMJsVuhHR9SNgyJ5ZNUIB4DDED4qltm9OiuI5vsw2oYwijWQCRDw1cms4dyYu3VkpHH0kkR0kC0u7R0aw116qGQNWy0mCC6hvp++F1a0ITFFCQInIh8lE5rObCDqX1P0g9sPvYvSIfahsTEKEwoAfNpJAERJ+ZOgmNMAlFvb8lDMNgAuwpcXY3q0okRCpW/Y+e2+ODCajHgPf6cSQBLSWhPCQhJqFe90OQ50lDT5kHyRqbPExAsemq4BV1SChXk4RsqGPHWB0LDmf3c5IBGAdmqQ51/2H9fQITUH/x79nTKUYQxQpaqo6xTahnHeDnQRLu61UENbDtf9XZZh7ykztWaUMzbsWq1UNcWVLHSCIiA3UhK75lJUcxOzbPs2PRGRO2NOASaNuHMiP2K6f/98SxMKfio9NMpyYsAUWtR7pcn6XqGM2OsTrWZcj9Fl+BjY7ck7cT+ZAjYlh+QH4r0ov0LAH1AuUIPsMN3booCbGfUN+7SYkKdjCxVLV0yDCT53zls1cehSEIClk4joh9b1+TCrAE1ASUYbjU3CbEs2N97Puq1KuHbfg9q/cR+ZC6PMjkQ1gzAfVxxPX70Q4Jef2EeIq+T31SlTD8kO9PpVq59L7tE9+iTSVJXe5TfXr2WCagnkEdzQcttQnRFD2REM+O9bC36uRTrVYvfXD7xge3gHxmt21tK25PD+vZlUexDagrsMavULYJ9aXPNPlA+tGSD5EPbHJJuEoMzXIZJqC+jLtoPpSn6HvaL8skn2EjH0KbVbCejrloP8xRx9gm1INeYvKpgcwE1IPRFqdHLLcJ9c1PiEJFVOEQQyFCF/8oZKiQnr/aPYp1TOn0/abhRqPSDUw+np5gFcwDRkxP0YfuImbdne6XjprjtQnNw2O6y/GEqM42muHUXSJ4uoH/DUvQH80OURgb3U7aaqjxcO/jnsKOwcquwJEYnKWqIDFJJAZfGoUfWxhb+nvUbD402+UYnIdR7fJ2gR6x3gt8HgsEJOw1phgXwt0J1a219pydwfWZDc2CjrvJ2vrssk2ImKRWR5kwraTQu3iARLCfPUik+hyC0+wHaTyFhHOglmfhjvdLZRjknIcQs1UiJ0SvsbOIcLMaBHMyeOY08NiZ8N07E757Y6aZGoFjH63qFNVqSdjVMkXor2LQ18iIog327GDJpwnUveyAJo/nS34RIM9lWlDqzTe+cWqUvs9M07oh91By48ZpozGte7fdz6UkZGDtWLbTtWNUdxvkAtLJQCYxRHnhGF3Dwkv5sJLyYcOQPyxalSf/37aJI+3Wc2k6JS+9fvoUEM+5mGF6AySgt+D+r4HgzqRAX0RG1coCESCpbLSLSLclIyYfgNzsYAJqhkpEr3kDlF+6efpKaB4bUdXX4e+lTpXlc5AUvoe4UlMP3DHxAF3z5nHS+P/Xq445C1gDLdugl11SvGOSdEA6RQy+3ajvl8yq+MZXPj/xeJOagUSnjGURAWc8Kcc957i+Zs1h1Yx0aasbccrLXm8o6xKIV1eiDheYCZBRuUjqGvncEAl1tBeXpybe05raNbxT7V4wGs+ZgBoRieh38owl57Qrrr/3jdjz/e+s1MgFMGyQWoEfeie0L0kT2A0V30mNyc8ipvCHH9x+9ffdvJ00LTAJkWEYNh1IThJqlaBg61hscLuqFL/44Bc+MOetk7PwEiSyl0hkI9lvSEoJdiAm9sa958ufn/i88YrnT7QbSenSD95zoWGoD6LwSSs1+jKbpKJyiepK70RYRMSST4veYwJqAVAUbpNn7DaQz2Wb7/mAYVl3SmlChSi6nrL0y+32I72wmo2sRCZBqoa07avvu+Pqe7ds2YMyLnTzBGrWUnWsZSgPSDzKgFe1UakUyabzFdtQn3rwcxPfcB9O6iQRBO1lhhjWVPfghOMWuuKno5LS80DkJI3pZ737xttWVSqrr4U0+XtYhX4+ETpwI5w6Vc2YfFbsi8Ub7sBdvMJnkULAlV4uvW76hkQi89kKVAa8O/SCJFpUtEx2FqyqFpVKadOuO66eCp+EmtqEiACrViKdULZNL/PfG0b1z+773OT3nPoquX7LNqtGOposW7SjG7e1alcjozopX3rdPddAff0T7Mv1ajKEQ9LExo4tcW5WPyafZqg0ucYE1ASUqFxyyedykI/pkA9+tWkip+3pZDLumrC7hExCOQQ1y3mCmtVsQtjShebOoW6JcvHYd2BV+SNsrvdNwpOkncOH90nKFxV8nXo4hOhde3X55qnfhTH8T0FEL6kZyClpu2oZ23x8dDATkA+wepnUlVaWkg+MO/5nbJaREMig4/VGXpuQ4yc0+mZIDKQazqOWf7Br+8ZbCS9S21YyDPcSz3ae5RI+pf3ND02dZFXEJ6DKXk/hUat2GdJQyyDxLPm0A7QnDROQB4yonDYnH1+ST2NTlpGQ+4zGhH6+uzYhmG+M7z5xz8OQzObLdn7yH+7cfIg2RpyZuRh/cQspoeSWLbOWay+7ZPP0Jdg59LOwD51aKs2TSgbPyLrNzQsXk48XjTbPmYDaBKpXydxf4UXJp0CPJltJh74qNFVmGOTwF6ZNiFQrmmFy602VDYPcqJx+HkSg9x08zSTVbOPvTI3mj8nPJ9OrrsQW18CRBNElajCTT8DOYgIKCFw3srkvcfjk49aWSAiLHEK2CdHLij8iSW3raZzydp8ex0+3T6jul22e/q9mIvWXjuuDIlsWpCHFNp8OOpYJqAPwwszqSg2L5FPEz2wgm0+rai1Tx8KwCaGuGEt6OJF4MFAHqZh7905LItbLrpu6DO38MhwZTRBREZ7WaVqr5gYTCwfLgYLvuI1hAjouPL256fr5LCWfjmw+rSq+jIRcAmyVcZjvu+Ry+Y1fvEBVq9+AXegkOHzC10ohjOrwBRMLYywwAYWBYgdluCL+IvmEZfNpVanu2IRaPTXu910SuuzGe18BEvpHCH4fxYzfl93rcW9fr+vPBNRrxD3PW04+XVO7PE/1ni63CUXlRYLyKcU0DO9rhJx9TMj158LyO66N8XDRcbyYoetJkcPf+fhDOt2yw7i3kRa7Omm8rQ3r3J39g4aMmXmpgNmyBcJhPWvQy2EC6lMPuyqPR/Ih2wn9dTjb5btBy9SxfpGQJp0Zx+FPbtAr1X03xs2gplDO8+sN8fRsVeac5SnuvTA+yS6Uy0nba4APo9xhK4MJqA897ko+nuUVIJ6u2nxatXIZCbkE2SpjGPc1WUCC8ZKO2i2s0i/OPK9aVa/FerbzIfa8AjLOqXjeCSCqND4h5FAURHUU/teQexA3SNk/geDzw4V0ct+JVz35gls3t3yxQccCIpIP6dCG9xDLC6laMSqGCajHneWSj0fyoRrQFHavJZ+GlvfeJqSJAbWQEzowmVCfP2d1wSr8JvSaK/BWvxUM8/J0BrAQMvSaE0rE03TQB41e+oOnoIueQpifYkX9AuvoZ3F1FxLcn57c/zOk0gcRm5fo3Ov82R8EqPv46BECzWe7ujLVHrBFizahcrk4+eD2iZ3dsG+oHOjiYtBGTc2av/v014NB/gMI572ZrHEykYpdUmKhDJZB9FKQjUM3NFrJNrT8oPsuJRmWKbAKH6yF1VuFYzZFQPxH3Lw1Ozn3RcqqVb1bEPY115mat7wafMUvAs06028ZnL4NBFyVxiP54J0g8lniUdtGSV1PAnVMImiYhdg9lesf2H71HWHaOdSt6xNy66xegT5/9xkXSsO+KWEY77YyUpQLCB5UVRUMSgKGFn/S+PQ3Rsn47BAWyUukIyW0FIWTYsHeBwnqLzPXHLiTUNxzq0is3yIq3TRY03P4WBmBPov9K1dskO6Q2kVrixbJh2a76Bc7cuRDsOPFVwvkLY14YBRxUexFYC/67OQgqUOrPyCfF+86/WSQz+2phPhuJmO+u1xVCpJKGeRDpGEBGAo1QmPT/3MdCYny0pqtBMpShYJdKeTtSjohz0+PmtvzO86YLdx9xtsu3CoQskSo3TmdFsn56DUCTEBdRry5zYd+4F2rRZcr4L94G4s1UghD8XxR5a+j7OvW7aP6Bj7I1kMvOqlc+Z1nXAOJ5/HsKnldqaJsIgYUTETjkk7g56yQkcomMrIKJVUtzNvlTFq8IZ0W/5TfMfa3pA5ugCpGktkK+flyFxHw/wvTxcoMWtHL1a5e+/kEQrQMD99EeSGv1S+XQAOVhExeo+/8jrWfzY6YN5SLNhbEYgZLBgr2FbQqi/kcu5LMrDLM4lH1IwS2fU968sBjXvVwMTGfdRMBJqAuobucfGDgiKbNx4tABfFvrHKl8NCu2zeOd2qAdl9oNTV2Ut5WX8+uMt9QOGrTBoImyKe/0rdjKypnUjJZWFAVVRVXjrx/bpdbZy8ofN49BPo7CLrXrr6WHDObzyJWIAZa6Q1vmT9cvBjszH2RC/eedlbBFv+azZpvKB6zsZ8XpJ5+kw81ybEVJYsLqmwawspm5QOFnWuvIwP5HlbHgnV6gFwsAQUA7XhZXJVl0eDcq7Vdx6tVW/e06lVaOHbXru0T7+9kOx9X7Sp84bSzbNP8XjYlT8KLjol1gV0CI3loR0y4AIjivP3bmWvmbnMJNJK1HaBKsQQUYmeS2kUBrBbJR892RcDJsGUjycicKJfyQpni45SatsZpmatJAm1whrH5CNQuZZrfJvIpFBV59ESVfKgVJiQiMoirdEZ+Bsbp95IkRCTUpIl8KUQEWAIKCcyY2nyc1sP9JpEascql+bsfuGPjtUGlH5pqd31q8BJ/FxLFhXipS3hIlMmnPgLwMiC4GLkh4ETZ60cmD37PlebqifgkVARYAgoBzuU2H6124Uc/kn4+DS3GogXYZGgPMWXLT9HNoNKPmHFe3vkdY5/BDFOsyIfajQ4zsdKjkkzQInfjK4em1oyS6wBN1dN9PsJHgIHtENMY23zcltMeXgaMz9/adefV3yGv5yAhVbXNhPx87j5jU3bE+BBmu8i/J2zJh3ycSaUlm437R9/DPKxiSZUyI8baUZX6nC6Ywn3w0RUEmIA6gDXGNh9PqxHUBjutKqluo4sUiN1zs61TkhC0zQR2H/g7/5+KdncKSWpwCAdTc6KK2SqZTkoDU+em/ktKBEbVUiaEF/gVESnR9HrnRxIzdmWokFfnp87YRItlSRXrvFguoREBZvZGRNr87i4sjVBIjTZrviQZAneZhlLVFyqWeuXXbpv4JVyVdJCtJalafHHtJPN3j92WXWXcqH19OncyJAlHYfmEJVMYpjBjYyZtHteeBcMcgb2pikXwo/hck7DkS2ktGZQlAYM3ERDl7YwwQHxQxYxSVT2dydrnyCsO5r02LpTPRwgIdNZJIVQgjkU4Nh/vbFecbD4exPGSWcm0gan3rxH56M0GpfS1c6k760Ur2vHC3og1XTakkOCzR46DYCWTxCaAlhQwYv9clNQXDcP+mp1I7M2e9NRhdxU9tUT9/dkvyeftV5ar1bfB5vZekNHbrKS0kK8KWQhkGlASQ75SWZUzq43TisfUf8Oj/kRsW4/3xVlI60GRTztAgAnIJ3jLbT7uwtKAA93n88NPjv2Uhfh7Xe74xQKGZF/HzD684vowbsKLL8rkUxx8nZsNk7hIjxoJENlPECzj5owxd48bL8itGJJoRUuvL3MCj83iHv19srTjrDcUqtU/zqTlVdjQVGC9GRFqsHGOGbHSvE1C4UePTp36t3Ji9rBWN3PhR1h02zZsn8E6ZthQqrW3+VS7tjnE0ZamaB93+P7MK0M8RE2cEQ/5Muhq6WdCVBamxn4V2a8iPxp8Bh1TZOMxk5B68kerfzZyzYGbqE50kIF75ulZNU4hyW7Wcg2FQyRdy7H4UOxoCr+6BeFX5VPfQ5b3FneOXVpV4o5sRp5cyKug684wOyhIClqVP2r9R5T7MXHaetjIZn3hhHx8rIBAHF+cFZrS3cvuVDvZfMxE5rOVctwlH1nVITeEmt11+8QzNPslapsLtovkLL30OPCSbk3CixgHSRs1iYi+tn1UoTqZVVuU54vqEpd8iHi03QVOgRuwYl1C8tBSj54x1w/SAepJQiIjOO7ZRIq0lCK9aW5XxRDnFQpqD2a0SCUkI3WQw7TR1ZDMbtQzfeSgSKodH6EgEPTXKpSHx6WQ5WqXa/OJq9pFyEOxMKj7jW/StxlxMTFI27/sjkF2tky+Mnjtr9YzXzqWEJXm67BJ8qHV8Xiv3zJ67f7vqql1SbFxLwgF9patvsqqhXedrVIZcmLvLyEl/Vph59i3MxnjIgQkI49sf/Yp2IIWoMZhRuysvDh0CWrzFYBFM4W+bGX+WjE8qVkCatHXNNsV0+UVLVomDAVXHaXUIzrhjNbCWuVZvF9zOhxR6XciqNgpAW0/FLFQkNoFXerKkUmQz65zUiCOEkk6iw/zf0Zl6Nk5MC0myN5RKFSfTJFh25kh81UgpB9tKMMOPJt8ZeTELRFgAjoORI7NZ8lsF14KbeeIO25ohzQr5ULZVGovQTA+3r70swQyW11BciCIpG3pyZO/AoOzUSyLP09Pzj3400+DfC59nFbMh3JoL+Y9CAE7MVdQytiIiItUUeo7X+SGxGYVwe6Ra4O67/SsLpfVsFD6KO4vUiggNCvEtfk0LCylETwImCmK+Yxj7mDm+Tk6yeVu9vVSuksUQDxv00tN/c98VeFUSLNdP81s2v8/qA7n/KfHad1YqIe8EDYbqGMj1+zfAwL6a9iDSOjyqz4ZFL0xnZKnFQvWG3QFyfDNR8cIMIhNIGxu84HVw/9L1qT0KFySNibAaCbpCVIvKfAYiLVtAgISetwcfeXpr4JEcQ6WLlD0d79jSUlacyXELYSINvB2qHatiOy+vZpwMknx5/lj9ouwOZEq5ktiQ02rEm4GyrYv0s9xd2Jd8aF8ox0E/A6adsqMdZrBWF7RqgvIAI3lF0o+QSkPr1tDUkH7x4xDNlbSeA2Ms45E4UclgQNkCh7OiM/8VPrIKVP6wVtn/UolbddX5qA3Y2ZMvvfAL0B1n6/N2JG/UtuHplhQNChIS0B+TWZtP2jIEjIBeTq8uZ/PQNh8PK10TrXZV6n99O3owcf8EVCtNKyeP5+oCJnblp4oKySvqkHLK4T4kl5DRpsF+iyDMvs6TnR8d6rK2AHPanoazWT5ORBJGsyp5HmUaTynl3v4yc9pmyDABFQDZbnNx51qHwibz9Kuh7RCEzs4nqF/Vp1+ri8CoTx0GNJ+ORWD/30RGNIb9DLj82u6oIf0v939Z6Ojcq0y1R7sjnGA1nnhgX7UMAl/JyLP09TXThkhwiRXhO5WevBLZwJCHze3+ejBOZj46LcHS7YM8Us9xGd8DnTsxO7kkKf6eoWdTApKm4lFowtS2f9We7IfIvBZ2VpNoTs5nts0I6b2mbA/4fDzXEmzaMh1QuFI4iW61FuYgBx0g/87mC+YDzyW23xo94oBJh8HG3odBZaNHnO+PuQDMSStSRMo4iVUDg79NrdZiILXMyU9lCkmD+s8OZfQ2iwhaDLXcCyNnwdQwLQDBozt6apdXa2rcHPQinA+F4GhJqDlNh8dyIbeqIHHRWETUkNgixwca9acr1nEHRQtPvXUFaVBpnQA6lAG0AUFHZE3PFmkcnDu5/mUpcPDfo4KQEPaf66jbikTmVLCSOoKTPsi3g7rPJjZtTPIYDbt+K0aKptPUyjw2luddT/sIYEPvPl+1J/Az2meUfqaAWsso0Rhz/gIBYGB/6VvhtJym49eWEovxBDhAQoINvFds18DLUTfaIZvi2sw/egUo3tuddZloSY9faEh92gbjp5ab1HZhtsSaqtIpEzd7umGm/zVPwJD9MI54DS3+WhDxlBhgaDrMEIrrUocPrzPLwHo9FLJFzEVpkNj+Bh6sqyNufLk8zKnnEj5bsn1iIBc47kUZwaQv2jlPemKJVuWte1s475eq44+UI5J0qF66ZwwqheWl4bUGD7ywdjEywQ7tFCOMZUCkfk4Zm5xJEXMJh2mM8cO3XYBEmE34IgoVquU+SrKdXOPgr7r2M6w5YBHfoXcAHC0TbzEPSb5XEpxNG2kjlBmHZtIn/A/QREYGgJybD7OwtKEjudDfj706gygn0/r0YDX0EDr5UspqV9HRJev8CY/Ra8wvZytH7mYAumrFOfZtKVmPjeu0GKK8M+mECeISi1Nn/krqPB58AWir207IyK1SiA1SPeQdKIw+pX86Hl8NCAwFAQ0wCE1Grqzva/06kFxwn/2ae3lWCGVVD8m6sH/4JT2D6Q3dPQfKa+iXOu3dG8ZhlurjbXgaZVq9T3pET3s/dqvFPlr47+fUZnkU+SWzZ/BERh4AnKm2htDagyl2lUfJcQW2o1XGWfSRd+e0DVbii3NfwsYiIwcEW0Enr+wMHXmW0kbVLnAoVzr7VrpBL0t9ZIP+pTyBkWhNXxOOGgpD28LinhUP8f1KVrpoXy9LQQGmoDcqfalNh+tLgx0u9voedqKh/YCezmlHfcZC9p1RMwWF35cttXTCChGnObMbbXxcJ0E4peAU41t2ze1myVwuul1tPpdIE70hxCO45xiWQeq9yXBaKmN4gkJ2wng9lDg2nBGDwID+yJ6p9qX2nwcA6oHg2E8ldgJldr9coTiyCAeNMhDBydsCwstsUAFkZufnQed/4uJMBU4/BEQvJCKRbuSzRrvyu9cO4EV6xUdirWtGrSfyFl+sbf0PLbvQQX/Z01i8zvuYYDG8pGCOqbs8ndrT/fb3vYrPUQp/XZELKBhm0/LboI/i3YCWlscMc6i1Bs3TvsbCzUVBDLBrqCUDtXIKC9o7vtMfmpsrQ6jirAZLWvfZoJcDjWrTZWnFip3guxOwnouYl5/bYXRPJkio716ePTaQ89qUsv5Jtw2az1cyfx2ROTR8c52ObtX0NquwQyp0UFnQGSRFSuZxZ7D4rVUzuHDPmMCPeS8gLKidiGqYREz1ORWTTqKn8OoVEUF2yyvUrb6+v6psYyzxTOC0nd4EEncjDIgWdnHdpzxN1C9Lse2Qf6D0jv10ME7TCnv0V/Z/tNh7yxmHygCGs/ttijC36XX33v90q1zhnKqfbGXm55hEp6cEYVyIvyNN0204kV6sXfDcJz9wIE5FPLVVEYPpSBLHKzCgipnM+avnGyL76gvnHkiSUJ7EUYVhmnf4xMMKJ0dMTDVjzrmQT4jI/KjCH5GIl8Q6YrUr0Rx3j5aLpW/pAGpke+K4PCNthHw3cFtl9zjhEQ+M7kNlSuuv+c9CSv1OQRcRw2Ge7arRRcYNm0dKsRb6Z+Z3Lhv8hinjDiwCfKtJGRqU7Rzye+/iQK2zEmn5a8WzOqPjt41dvE62hkDBKIQrIyIjmayVirUIR1h6qiHZMyiHTFAZPM7xh7IjDrkgzRBF75VKIIilmBMr9r87CGqD9VrpbrwdX8IrNip/orpb2oYUQ0ypF6+eWotftYfl9JMY5aHXihfMx39bUXPn07vLU2AVzAldu59d0484eLYbk2oAFK6qJT5u8e+l03L10Oa6QT3SsqSek4NjoLbpCk+lp2YO+DWR0tEF0Mqemy9Hre0F/N6RDr0bt1Mqle+uvbDqNSfw+ZzIqldSBZE8nFaR8xlClkqiwtGr537oWPU5miIbp90+hn0V6HT54aav76pnpR/mkiNpssLx2h3hY7tCKFWMnqFafIBXlalPP9OVO/v6ji2WVewgFIzWrKoQJv7OObF7sE1yEIqKPFb2ASQCExmR40tUJs2z+9Yu8O0zbvylvUvcuLntAQC0gdRz+JBUknpF2PnY3PD9xRscT3yvrxctEWxE/Kh4hXsU9hVtTBf3Tl67YEfggAtkJ0WGxefzmedIBB7Ccj91X7XB7e/LCEzP8N+56PYuYAE9ti3rZOObTNvxUpkiYC++sAdE5fQ7hjT0xNEAL4OkkxILcnfvfabCFL/VkxX00va0Y8bOo+2Wk6kaMtnWMrhuPgcru1DTOYnpEQ8HykrWAyLqXV1Bq6/GnaaV5CqRE6GNT8fMi90YmKA7KPHkCpXxXknvH/upzRrhzqx+uVrdBw/cUeD5PhF9+buzIyzpXBSpt9iJrOjsP1UMGxi367eoEdbIpOtTG541w13nzH9uYn9LqH7en5tMSkcGz9SKWvxhCQg9wX2VZSbGJlpX3gFKUhLRAlTnmwlxW9AyvqNJZq1DUEOc1vFilLFYzb+hdodTv+XM6uMZPFY9eMnvP/AT51tg7BVNB+hItDJL0SoFQla2NFzazs6SPlqSD8oBkOQj3YRkPBtKUMNSyWr5kbKdN/B03yrT3qVOfx3RiYPfg+2kr/Ai0vSZxgvK5VDPyYmQnioYlFVQDJlTPsv/uXtCiQeLZUQaYF8whjT5BoA8rH3ZTYduAnPF6IH69X0c4bsnzA6KxKQgXZOiERFYlYJvOGYDSuTH/QNVHVyY8AHvfj+jtq+XtiB9L8XjtqzmYxMQgYKg4TceoAsMRvmGJTJqOz+EUFB9wpQZ7fkpZ9EZlYJUhW2rb6Wbimy/Whz+9KE/K1zBAaHgCQFWPf/3nQOYexLMKuVhaqVyLzmiuum30WtGR/f7V8KItHTXSGu7KsKeTWPrW+IJHzblPqMqJ0Z1dPuH05OHnhUq15YJtLnOg3s42NPQKsec/a0wi/UT2iBJQ5mIZ/DFaYWvUcPfvq1urFmzeFAaqyrimWvObi/ashLdWcg7A8+40JCpcxqwyocq34iMzn3Ge3zs5XtPj6Hk6/ksSeg8fGHtP4vbfXPlVK+iNkREskDvUC+kBuYxNjfVMgEZg4JtjupWevW7QuMn15KAXvQqk37/6laUe9LI/AYfhyiTUKOekXkk8y/qLZnJw/8IdQuQ4zHhjhjOxpjT0DkgDg+nrPu3z5xAE6IX04kstQZYdoeYtu5bVQcrGNIqF8CptwbMRW/LZdT2qmzjbwrJnFJKDU598XCgr0J+8CTMx+RUBT7BTP5okrkUzyq7hiZ3H+d2zC2+7hIdO8z9gRE0Lj7Wlmm/cfl0jyUMBhASa3g43gIED6GlUjLarlw4/13bPwcLeTN5WQouLkklN10YKpUke+qLTolmxA5iUblqEBfN2DzsQovQu3atP96qhhJP5KXWxAUXT8GgoDIeY7Wgn3ltonHoTvcmEiOaOAwuEJ5mbreC71/AHCBrgrJx0s+tRmw0GrjklB64t+/bhj2a7BM43HyrcEDyKjbT7sQqZglTLXrZR/FefUhUrtyIB4mn9C6v62CBspgi9kba2ZmQwVrwj5ipUY/CWnIJaCBINq2erRlIpIMNfnUJR93h9iWWQMm0DNJMOaqPesT+cef2YaV79cr7EqxUFYUGt6ZRg9Yts9sRDwk9STSqwyRf9Hei6n9a/UaLyznELD5sNrlE9EOkw8UAREW7qr4y6+/5yNYZsAktHSA1MhnUe3qNvm4j9czShuc6Wys77ocpulPQxp6eSUPZyEECcNANMAOZCfqxqGJB/OjFpaKSPKuxoWPj0zO3UwPcwmyGw/mMo+PwMAREDW3KQk5q8MGsr3H7+L6XZIGYfPprtpVf1qTE0gbUsxgMQWIiAip8MzYH4AI/ii72nipwBourIAntQxeAZiB6tyjmUhHq3mWIfBbZIiFPDYkq4q7jKRxU/p9//5zqiKvbicU+ncM7AtZJ6HNkIRSjiREjcWoHEZ1bJnk48bM7sfQ80pD6vPnrC5YC7+NntmSScvzaOsbG2QE9YwIhGxF1G00UU57KVL/NRuzlNb7Z9CsWwJhVCk1QnK8gIWrOyu2/NtV1/77XqTVUg8tr2CVi9Do39GsM/tXm5Cf3IyEao8YIhLqvc2nnW7U0tC29RYZqmvpZXHnme+oKnsT1LN3JixxtpV2GIdWw9OSVMRz1sF1NTUhEw1einVpYemZScobdtnQPy+wL2H1/Av49s9YPX9vtWR/efV1B35BzyHym8a2QhMTfTWCU1X4AALUhwN9uL/0Q2oTWib5ONtT6/Vekej3JkSkpZP86kMXSKneDNFnPfy7zoN8sxYVPhESSwZ5yHBNB6mVkJfUi1jM9izI6GdSiR/Akvwdu2jvcUmHEhLxCBCPN3gZXeejvwgMPAERvE0locG3CdHL2Vebj9+hvRuLPmnbZ7IRNealOM/His+9JGGmRstmOUVz+coyK6mynD9sFl982cRhrAVceui1aRRAnme3lgIToW9DQUCEd1MScjpiANUxUrvIwzkty3Ay3FVzMgzbz6db41jbeaagTNF2yufOqnYJRBMO5XkaeW7mKfVu9U+Y5Q4NARFodXXMY5iugTlIJESSDzkZ9szPp4Zh1z40IZGJ+ZaayeBmz6NuwfnNZKLW9gRKxUeMEBgqAqJ+aSYJEQgYuYNAQiAfcjJc9PNxSTdGY5KrOkQIDMJL56u7aOseIqH7t1/9qcpC/qNYtkEOcMRAcf/1rNl8mHx8DQhO3FcEho6ACO1mJAQRngiIXuIYHvWp9vraLnd76hg2hqs8RAgMnQrm7VtXPbk83jahZWpXr5ZXeLHkc0YgCALdWnsTpC49z/P07P02qWP/8KnLHj7ntVe9AHXsEsRHRnhkLQ3FgZxrateiwZlI9f5t73ad+3qOKT+QEfCDwFCqYF6A6urY7bAJlWNlE3LJp652uRKdt318zghEGYE4/Mr3BL9ms2O1B0eQpBf9fNx4Pqx29WSY8ENCRiCCL1frFurAUVgxrXL40x4grfO0SkGSkFZfaHasJgnV8kTNMI36OE6GTD6tepXvRx2B2EhAmmgQykFsgIerY6OpY+u63Ddz4a8navOkLgl54wlFZ9kGq11t9iMniwcCsSAgWkjoJZdjU2efaldKL0laRiWVKj4rr3zuKMFdk4YobENHUkudhDyzYwRUn50VmXzi8U5xLX0gEHkCcsnnyNTYSZYtfhdtuwp64zkgAwr8TDsa/AKEswffb8tiFwZqu5uHzoMezUioVlYf1Na6n8/ALK8I2i+cb7AQiCwBgVDkTE6YG3Kikt+5dkIpuS27yjhBIIowbZtbhTwA4tGxYKwkTkALxbz9UFVak6MTTz4TRphNd1apz35CuqXe5RVscB6sl3CYWxNdAqqpXfm71/7nzCrzrysFRQGpKIg5+S5RyE7XEoRLWuVS2F4lkT9mHzYM802ZiaeeCIOEmkpCvbMJsdo1zG/nELQ9kgTkqlD5HWf8fmZEfqLoBBGn7mjlOElbrSSx/ctzpZL5ay/Z/NQTexFHZt3E3o72ompGQjX+66Y6Vpd84hhSYwjeHW5iCAhEioBI7RK7naDlLvkUjmHPYKeW7b3s2GQBsYUTREJSWW/MXPPkk90ioRr+7dXLX2eR5DNQITX8NZ9TDwsC3Xh5AmF3HPIh+mm7nrALEfmUIQmdrGTlu4W7zz6bJCBSxwJVrJZpiZ9QbRU93ULliCzCPGqSz+LyCieM6oW8vCJMlLmsSCAQGQmoUe2qST5Uv6B1JBJaIgnFwCZEZBarMKqRGMVcidgi0LZk0c0WrkA+9Mig5EN5l0lCtAMDqWN0M+hRXzvmiSeEWrqG8KDFIl99ql2QzYf2aueQGh3AyVljgUAnL3jHDTyO2kVlh0OOXbIJhTxFX1O7FoOJ8VR7x8OLC4gBAn0joOOQD9Up7Hp1Vx3rbNnGMvJxyS0G44eryAh0hEA4UkaQKjSf7eoG+VDtmqpjYRimaYr+fk8oDyGxIKR9wzS22+MYzkGGD+cZDATCljTaQuU4Np9uE2JdEnL9hNy6tFXxFRIt+glNfcRKr/pkuTQPk44i3yOaeVuOMcWflqIspZk0raQoVxZu2HX7+26P2qaBKzSXLzMCoSGw/OXwFE3hLsTFwph9bL1cT/szYWdJMSFsZKJfed/HcdQuKqvb5OPUt2YTyi+ow8qwXquXbSC0R1gLWC+9bvoG4PPZRHIUxmRNRLTJngcvrJWF0GMls6K8cLRoSOOa+26/+kusdjndw/8OFwJNCQhKhCGmoRussH92QKlBIp9Jq9obnAypDk3r0Y2uoAeBDUpYtpGEh/VDmU1z47SKHgTkIYlgTx4f323NzGyoYBvoV8Gw86fQxq4E0aQh6ThPpX/hV1kp5Y/hedOQkm66f/vEAVeCCvZUzsUIxBeBZS++l1zyU2NrVVW9DguvTgVFFJUhfpoRc7MuMZGEJHPtOeK55faTfBq6qZwZMRKFeft9tIrerV9DGt9fvWRy+eaptcqQvw6COw+EM4p9y4+AdH5cUsVv/8Odmw9R4d70vh/GGRiBmCOwhIDcl7C4Y+25WP/wF5AJLs1kZBpyixYbqrQSvaKewJdPZycPfJLaTsHAXEJaCQu33AbyoeS9UbuaV6ySyRhWsWDvykzOXdZOO5oXs/zqxo1T5uHD++TMTG7ZHuduaiKecfGQncvlyPmQD0ZgKBGoE1CdJO4+YxNmcnZAOqDwFvjB1hEIbegnlNZIJaRhZKQovGh/84Uj9m+dvvVg3s3biKDO01ztoqT9JB96vp0wpVGuqEOZbPEcCmoWlipGhdMBcjFmZi42jp77WB3nVY+dq8bHmXgchPjfYUdAvxhQpSyoUpXijrFLUhljV2nBpng7zWdxFFQuzODAhpJC6ItHs6dYb5Ybniw2IyH3WoPkQ8+sv5B97ADafgdakagahnh1emLucT8qZR/rzY9mBAYGAfJa0QZYNbVmtGCnfp605BqoWaQ6WC1aWcpkjWQhbz+aWU5CkTA4H7f+ZHSmyXBokRXbPn/1tQd/DCw6ng077jP5JiPACCxBwJjdtl4TTcFOb8msMoh8SPJpRT5UCJEPkdAFhWcrj+yfGsvQDBc590GSaDbbRXmiIPlQPbRNy4QSiArNG1byBbp0yy30Lx+MACPQKwSs9U/PwhuXDnWlKOuTVkG/dKLaP3USemneflhNjV0kJ2YLdC+/Y60OJhbCqnbv88I8t5MJacIf6HHtCwQuandGL8xKcFmMwDAjoKfRSXoBCK+sOnM2fqUUh4RGIAnZ4hGaTSruHPu9zKj5iQiTD/V5VSCWNHQuHcieAqEN80DgtjMC/UBAq1ojIpnEyoE0TXUFPJLwp6kg/s5rC6WxJ2FbGVuYpzWWujS/hBawCr6yVTEDlgRBvlCW4n/pnOMgJD4YAUagpwjoqfAT1/x8Ho5yR8gmAvIIeliIRFhNmnIMxKNAZlRSv6fam7WFlpIIC64EaOzWEybmfqln60LwhG72ML7GCDACKyNgaAc8Mh4r9W9GAi9lZ5v6mTBiu451UZR8aOpdpUcMs3C0+vvZTQemXFeBlSHiO4wAI9AtBAyxxlGU4BDzhZrK5BJI0GcatentoPm7lY9kMod85tUfZK858De7yf8J5NutB3K5jAAjcHwEtJQCXQkamFD5HWOPYFr9TTS9jmwdhS49/mN7fpd2UBVwnjQKRD6T+/+aJJ9m+8z3vGb8QEZgiBHQNprpKcdWIxPVTfm8fSSTlEQ+zqR8/MFpSj4k+RDpxr953AJGIL4IaAmIqu/aQopTp5+nbONf0qnUs+IAAAUWSURBVEm5ulBSREIUVCuuh1a7GiUfVrvi2p1c70FDoD5L5XoxpycO/kQa9q8VS+pFkBCRT1wloabkQ2rXoHUit4cRiCsCdQKiBrjb1rgkBAkoriREahftFc82n7iOTK73UCBQV8G8rXW3MiZ1rAp1DDah1ZCI4qKOrWjz8baRzxkBRqD/CDQlIKqWl4RiZBNqqnaxzaf/A41rwAg0Q2CJCuZNQPupEwm56lgMbEJNyYdtPt5e5XNGIFoIrEhAVM1GEoqwTYhtPtEaV1wbRqAtBFZUwby5veoY2YSy0Zqibyr5sNrl7UE+ZwSiiUBbBERV95JQhGxCTD7RHFdcK0agLQSOq4J5S2hUx/L9n6JvSj5s8/H2Gp8zAtFGoG0JyG2GVxLq4xT9SlPt5GTIyyvczuJPRiDiCPgmIGqPl4T6oI41lXzY5hPxkcbVYwSaIBCIgKicRhJK9cZZkcmnSSfyJUYgrgi0bQNqbGCjTagHU/QrTrU31o2/MwKMQDwQCCwBuc3zSkJdtAlhi3UhU9ittXCsing+B3Q8H1a73F7gT0YgnggEloDc5nolIROr6BcwO4a1Y+GtoqdYzaBJCpiPQPcf0eTjRDLkVe1uJ/AnIxBTBDomIGq3l4RCD+UBqw8C3UP+EXMpOefsYHHaepLceLYrpoOOq80IuAh0rIK5BdFnF9WxKrb8MbHrxg8zhniznJgruAHUvM/nc0aAEYgXAqFIQG6TvZIQqWMhGqaJfCqZEeO12Pzw4fo20BTXmQ9GgBGILQKhEhCh0EhCIdqELGx+qPeifylISO0+O01GaB1cPrbwc8UZgeFGIHQCIji9JBSyTai+F33h2cojdRLCdtDD3Y3cekYgngh0hYAIikYSClEdW0JCB289PSsnRFXlIrkLazxHBdeaEegRAqEaoZvVudEwHVYoD8yLLWCH0xT2d/9mdnLuN5o9m68xAoxAtBHomgTkNtsrCZFhmiIrhuEnpJQg8lnIrDbelt+x9qP0PLYHuajzJyMQDwS6LgG5MHglIVrASmvHYKAuw5mnk33HqqmENBfK6omMMfcqrYrVdnl1n8ufjAAjEF0Eui4BuU33SkJkmCabEEioU49pIh87acmXF8TYev2s2i6v7nP5kxFgBKKLQM8IiCDwklCIyzZsMwlHaVu8SsO8hhZu8MEIMAJxQKCnBESAeEkopCl6vVYMCzPSVP7sY3qZBp3ywQgwAhFHoOcERHg0klAnU/R6lVhVCcTqeIbKXn/uLK8RIyD4YARigEBfCIhw8ZJQB8s2iGysQkEVpSl/oPF+CFzEByPACMQCgb4REKHTSEIBlm2U01k0QYpd2Ym5Awoe0TLHBBSLkceVZASAQCQMto1T9Gln37ES6pds1ktUaYg+FdMQVhXyjiHUeenJA4/BN8iASsYSUDPQ+BojEEEE+ioBuXh4JSEyTGPLnyOZrEHkQyRUAdsQqbh/sPiIUsqSVjKF6is5qckHK+OZfFxE+ZMRiAcCkZCAXKjUresTcutsuXDvaWepsrkT4TfeRKKODXdFG/QDghEmBeBISJE/ah/G2XUjk3MPkgc0h2d1UeRPRiA+CESKgAg2L5nk71o7oaR4v5TyNVCvTgABFZHkZ6CiL2eM4jY5cfiYN318YOeaMgKMQGQRmIIxGYJPnRyJZH459YoTKBCZt9JYAc8BybyA8DkjwAiEhwARD81seUuksBt7oKpBIqoTlPc+nzMCjEB8EPj/beVeble8Rv4AAAAASUVORK5CYII=;" vertex="1" parent="1">
          <mxGeometry x="380" y="430" width="48" height="48" as="geometry" />
        </mxCell>
        <mxCell id="WdcBxDvD3YkukcvI_A6Z-11" value="" style="rounded=0;whiteSpace=wrap;html=1;strokeColor=#004C99;fontColor=#0000CC;" vertex="1" parent="1">
          <mxGeometry x="210" y="200" width="190" height="100" as="geometry" />
        </mxCell>
        <mxCell id="WdcBxDvD3YkukcvI_A6Z-13" value="PostgreSQL&lt;div&gt;5432:5432&lt;/div&gt;" style="text;html=1;align=left;verticalAlign=middle;whiteSpace=wrap;rounded=0;fontColor=#004C99;" vertex="1" parent="1">
          <mxGeometry x="300" y="235" width="90" height="30" as="geometry" />
        </mxCell>
        <mxCell id="WdcBxDvD3YkukcvI_A6Z-15" value="" style="shape=image;verticalLabelPosition=bottom;labelBackgroundColor=default;verticalAlign=top;aspect=fixed;imageAspect=0;image=https://static-00.iconduck.com/assets.00/postgresql-icon-1987x2048-v2fkmdaw.png;" vertex="1" parent="1">
          <mxGeometry x="230" y="225" width="48.5" height="50" as="geometry" />
        </mxCell>
        <mxCell id="WdcBxDvD3YkukcvI_A6Z-16" value="" style="endArrow=classic;startArrow=classic;html=1;rounded=0;exitX=0.5;exitY=0;exitDx=0;exitDy=0;entryX=0.5;entryY=1;entryDx=0;entryDy=0;" edge="1" parent="1" source="WdcBxDvD3YkukcvI_A6Z-4" target="WdcBxDvD3YkukcvI_A6Z-11">
          <mxGeometry width="50" height="50" relative="1" as="geometry">
            <mxPoint x="20" y="340" as="sourcePoint" />
            <mxPoint x="70" y="290" as="targetPoint" />
          </mxGeometry>
        </mxCell>
        <mxCell id="PyuIM4OST405FSh96Bw6-1" value="" style="rounded=0;whiteSpace=wrap;html=1;strokeColor=#00CCCC;fontColor=#0000CC;" vertex="1" parent="1">
          <mxGeometry x="520" y="310" width="190" height="100" as="geometry" />
        </mxCell>
        <mxCell id="PyuIM4OST405FSh96Bw6-2" value="Jaeger&lt;div&gt;- 16686:16686&lt;/div&gt;&lt;div&gt;- 4317&lt;/div&gt;" style="text;html=1;align=left;verticalAlign=middle;whiteSpace=wrap;rounded=0;fontColor=#00CCCC;" vertex="1" parent="1">
          <mxGeometry x="610" y="345" width="90" height="30" as="geometry" />
        </mxCell>
        <mxCell id="PyuIM4OST405FSh96Bw6-5" value="" style="shape=image;verticalLabelPosition=bottom;labelBackgroundColor=default;verticalAlign=top;aspect=fixed;imageAspect=0;image=https://www.jaegertracing.io//img/jaeger-icon-color.png;" vertex="1" parent="1">
          <mxGeometry x="540" y="335.5" width="43" height="49" as="geometry" />
        </mxCell>
      </root>
    </mxGraphModel>
  </diagram>
</mxfile>
